<!-- Generated by IcoMoon.io -->
<svg version="1.1" xmlns="http://www.w3.org/2000/svg" width="32" height="32" viewBox="0 0 32 32">
<title>bank</title>
<path fill="#333" d="M27.845 4.202v-0.013h-10.815v1.030h7.743c-0.954 0.804-1.563 2.005-1.563 3.348v19.056c0 1.846-1.502 3.348-3.348 3.348s-3.348-1.502-3.348-3.348v-0.773h-7.725v-9.785h-1.030v9.785h-7.725v0.773c0 2.414 1.964 4.378 4.378 4.378h15.45c1.341 0 2.544-0.607 3.348-1.559l8.755 0.014v-21.888c0-2.327-1.827-4.23-4.12-4.365zM4.412 30.97c-1.759 0-3.206-1.364-3.338-3.090h14.418c0.072 1.237 0.66 2.338 1.552 3.090h-12.633zM30.935 29.425h-7.084c0.249-0.55 0.388-1.16 0.388-1.803v-19.056c0-1.846 1.502-3.348 3.348-3.348s3.348 1.502 3.348 3.348v20.858z"></path>
<path fill="#333" d="M18.060 19.64c-0.416 0-0.792 0.167-1.070 0.435l-1.056-0.528c0.039-0.135 0.066-0.274 0.066-0.421 0-0.852-0.693-1.545-1.545-1.545s-1.545 0.693-1.545 1.545c0 0.291 0.085 0.56 0.226 0.793l-1.252 1.878c-0.163-0.058-0.336-0.096-0.519-0.096-0.852 0-1.545 0.693-1.545 1.545s0.693 1.545 1.545 1.545 1.545-0.693 1.545-1.545c0-0.291-0.085-0.56-0.226-0.793l1.252-1.878c0.163 0.058 0.336 0.096 0.519 0.096 0.325 0 0.626-0.102 0.875-0.274l1.204 0.602c-0.007 0.062-0.019 0.123-0.019 0.187 0 0.852 0.693 1.545 1.545 1.545s1.545-0.693 1.545-1.545c0-0.304-0.091-0.586-0.244-0.825l1.063-1.771c0.070 0.009 0.139 0.021 0.211 0.021 0.852 0 1.545-0.693 1.545-1.545s-0.693-1.545-1.545-1.545-1.545 0.693-1.545 1.545c0 0.406 0.161 0.774 0.418 1.050l-0.966 1.61c-0.152-0.051-0.312-0.085-0.482-0.085zM11.365 23.76c-0.284 0-0.515-0.231-0.515-0.515s0.231-0.515 0.515-0.515 0.515 0.231 0.515 0.515-0.231 0.515-0.515 0.515zM13.94 19.125c0-0.284 0.231-0.515 0.515-0.515s0.515 0.231 0.515 0.515-0.231 0.515-0.515 0.515-0.515-0.231-0.515-0.515zM18.060 21.7c-0.284 0-0.515-0.231-0.515-0.515s0.231-0.515 0.515-0.515 0.515 0.231 0.515 0.515-0.231 0.515-0.515 0.515zM20.635 16.55c0.284 0 0.515 0.231 0.515 0.515s-0.231 0.515-0.515 0.515-0.515-0.231-0.515-0.515 0.231-0.515 0.515-0.515z"></path>
<path fill="#333" d="M2.61 4.189v1.030h11.33v-1.030l1.818 0.969 0.485-0.91-7.967-4.249-7.968 4.249 0.485 0.91 1.818-0.97zM13.939 4.189h-11.329l5.665-3.021 5.665 3.021z"></path>
<path fill="#333" d="M1.065 12.944v1.030h2.060v-1.030h-0.515v-5.665h0.515v-1.030h-2.060v1.030h0.515v5.665z"></path>
<path fill="#333" d="M5.185 12.944v1.030h2.060v-1.030h-0.515v-5.665h0.515v-1.030h-2.060v1.030h0.515v5.665z"></path>
<path fill="#333" d="M9.305 12.944v1.030h2.060v-1.030h-0.515v-5.665h0.515v-1.030h-2.060v1.030h0.515v5.665z"></path>
<path fill="#333" d="M13.425 12.944v1.030h2.060v-1.030h-0.515v-5.665h0.515v-1.030h-2.060v1.030h0.515v5.665z"></path>
<path fill="#333" d="M0.55 15.004h15.45v1.030h-15.45v-1.030z"></path>
<path fill="#f9ba48" d="M1.065 7.279h0.515v5.665h-0.515v-5.665z"></path>
<path fill="#f9ba48" d="M2.61 7.279h0.515v5.665h-0.515v-5.665z"></path>
<path fill="#f9ba48" d="M5.185 7.279h0.515v5.665h-0.515v-5.665z"></path>
<path fill="#f9ba48" d="M6.73 7.279h0.515v5.665h-0.515v-5.665z"></path>
<path fill="#f9ba48" d="M9.305 7.279h0.515v5.665h-0.515v-5.665z"></path>
<path fill="#f9ba48" d="M10.85 7.279h0.515v5.665h-0.515v-5.665z"></path>
<path fill="#f9ba48" d="M13.425 7.279h0.515v5.665h-0.515v-5.665z"></path>
<path fill="#f9ba48" d="M14.97 7.279h0.515v5.665h-0.515v-5.665z"></path>
</svg>
