<!-- Generated by IcoMoon.io -->
<svg version="1.1" xmlns="http://www.w3.org/2000/svg" width="32" height="32" viewBox="0 0 32 32">
<title>box</title>
<path fill="#333" d="M28.875 30.933h-8.239v-13.388h-1.030v13.388h-16.477v-8.239h-1.030v9.268h27.805v-9.268h-1.030z"></path>
<path fill="#f9ba48" d="M31.964 23.209l-2.575-6.179h-26.776l-2.575 6.179h18.537l1.545-3.707 1.545 3.707z"></path>
<path fill="#333" d="M8.502 13.18c0.168 0.321 0.315 0.671 0.437 1.040l0.977-0.323c-0.14-0.421-0.308-0.823-0.503-1.194l-0.912 0.477z"></path>
<path fill="#333" d="M10.337 15.976c-0.001-0.013-0.016-0.339-0.105-0.832l-1.014 0.182c0.075 0.421 0.090 0.696 0.090 0.699l1.029-0.049z"></path>
<path fill="#333" d="M26.079 13.542l-0.882-0.532c-0.195 0.322-0.365 0.668-0.505 1.026l0.959 0.375c0.119-0.305 0.263-0.597 0.427-0.87z"></path>
<path fill="#333" d="M24.241 15.982l1.029 0.038c0-0.003 0.012-0.268 0.099-0.674l-1.007-0.216c-0.106 0.493-0.12 0.817-0.121 0.853z"></path>
<path fill="#333" d="M31.439 8.69l-1.010 0.202 0.368 1.839c-1.107-0.149-3.142-0.25-4.317 0.758v0c-0.21 0.18-0.412 0.378-0.601 0.591l0.769 0.684c0.158-0.178 0.327-0.343 0.502-0.493l-0.335-0.391 0.335 0.391c0.785-0.674 2.328-0.664 3.379-0.538l-1.037 1.383 0.824 0.617 1.683-2.244-0.561-2.8z"></path>
<path fill="#333" d="M11.96 12.212c0.206 0.51 0.384 1.025 0.529 1.53l0.99-0.285c-0.155-0.539-0.344-1.088-0.564-1.631l-0.955 0.385z"></path>
<path fill="#333" d="M13.942 15.989c-0.001-0.012-0.008-0.315-0.085-0.833l-1.019 0.154c0.067 0.444 0.075 0.699 0.075 0.7l1.030-0.022z"></path>
<path fill="#333" d="M5.553 4.064c1.139 0.862 3.618 2.955 5.368 6.013l0.447-0.256-0.446 0.256c0.128 0.223 0.247 0.443 0.359 0.659l0.914-0.474c-0.118-0.229-0.245-0.461-0.381-0.697h0.001c-1.735-3.031-4.086-5.119-5.378-6.124l1.44-0.326-0.227-1.005-2.87 0.65-0.61 2.833 1.007 0.216 0.376-1.746z"></path>
<path fill="#333" d="M22.624 11.114v0c1.43-2.407 3.977-3.92 5.203-4.544l0.017 1.711 1.030-0.010-0.028-2.758-2.228-1.76-0.639 0.808 1.378 1.088c-1.335 0.673-4.045 2.287-5.619 4.938v0c-0.141 0.237-0.27 0.477-0.388 0.717l0.925 0.454c0.106-0.216 0.22-0.431 0.347-0.643z"></path>
<path fill="#333" d="M21.802 12.895l-0.972-0.341c-0.146 0.415-0.273 0.848-0.38 1.289l1.002 0.242c0.097-0.408 0.215-0.807 0.35-1.189z"></path>
<path fill="#333" d="M21.223 15.302l-1.021-0.14c-0.068 0.496-0.080 0.805-0.080 0.818l1.029 0.040c-0-0.004 0.011-0.278 0.072-0.718z"></path>
<path fill="#333" d="M17.015 13.9l1.028-0.056c-0.024-0.446-0.061-0.911-0.111-1.379l-1.024 0.108c0.050 0.485 0.084 0.93 0.107 1.328z"></path>
<path fill="#333" d="M16.738 11.249l1.018-0.156c-0.066-0.434-0.145-0.889-0.239-1.36l-1.010 0.201c0.091 0.456 0.167 0.896 0.231 1.315z"></path>
<path fill="#333" d="M17.032 15.965l1.028 0.071c0 0 0.020-0.287 0.022-0.804l-1.030-0.003c-0.002 0.464-0.019 0.727-0.020 0.736z"></path>
<path fill="#333" d="M13.004 1.521c0.737 1.030 2.153 3.275 3.017 6.379l0.496-0.138-0.496 0.139c0.069 0.247 0.133 0.492 0.194 0.733l0.998-0.249c-0.062-0.25-0.129-0.504-0.201-0.761v0c-0.869-3.121-2.252-5.4-3.063-6.555h1.538v-1.030h-2.893l-1.172 2.344 0.921 0.461 0.661-1.322z"></path>
<path fill="#333" d="M7.417 11.747c0.169 0.153 0.33 0.323 0.478 0.505l0.799-0.651c-0.181-0.221-0.376-0.429-0.583-0.617-2.142-1.946-5.308-2.21-6.786-2.216l0.738-1.846-0.956-0.382-1.107 2.766 1.106 2.766 0.956-0.382-0.755-1.888c1.331 0.009 4.234 0.239 6.11 1.945z"></path>
</svg>
