<!-- Generated by IcoMoon.io -->
<svg version="1.1" xmlns="http://www.w3.org/2000/svg" width="32" height="32" viewBox="0 0 32 32">
<title>brain</title>
<path fill="#f9ba48" d="M16.634 15.583l-0.742-0.742 11.414-11.414c1.072-1.071 2.817-1.073 3.889 0s1.072 2.818 0 3.889l-11.414 11.414-3.148-3.148z"></path>
<path fill="#333" d="M25.1 23.034c-0.014-0.074-0.032-0.146-0.050-0.219-0.014-0.057-0.027-0.113-0.044-0.169-0.025-0.088-0.054-0.174-0.084-0.26-0.007-0.021-0.013-0.043-0.020-0.063 0.848-0.836 1.328-1.973 1.328-3.176 0-1.824-1.116-3.436-2.75-4.115l-0.833 0.833c1.478 0.393 2.534 1.733 2.534 3.282 0 0.809-0.288 1.575-0.797 2.184-0.806-1.159-2.146-1.922-3.662-1.922v1.049c1.359 0 2.532 0.802 3.079 1.955 0.051 0.109 0.097 0.219 0.136 0.331 0.003 0.009 0.007 0.018 0.010 0.027 0.035 0.102 0.064 0.206 0.089 0.311 0.004 0.018 0.010 0.037 0.014 0.056 0.021 0.097 0.037 0.195 0.050 0.293 0.003 0.024 0.008 0.048 0.011 0.072 0.013 0.121 0.020 0.243 0.020 0.366 0 1.88-1.53 3.41-3.41 3.41-0.764 0-1.488-0.25-2.095-0.723l-0.215-0.168c-0.702-0.642-1.111-1.557-1.111-2.519h-1.049c0 1.208 0.498 2.355 1.351 3.188-0.645 0.803-1.607 1.271-2.651 1.271-1.303 0-2.473-0.728-3.053-1.901l-0.323-0.652-0.517 0.514c-0.643 0.638-1.496 0.99-2.402 0.99-0.415 0-0.817-0.083-1.198-0.228 1.196-0.801 1.985-2.163 1.985-3.707 0-0.112-0.015-0.22-0.023-0.331 0.835-0.145 1.615-0.523 2.248-1.103l-0.709-0.774c-0.489 0.448-1.091 0.738-1.736 0.846-0.351-1.095-1.111-2.032-2.164-2.587l-0.489 0.929c1.125 0.593 1.824 1.75 1.824 3.020 0 1.472-0.94 2.725-2.249 3.202-0.185 0.067-0.372 0.117-0.56 0.152-0.013 0.002-0.025 0.004-0.038 0.006-0.187 0.032-0.375 0.050-0.563 0.050-1.88 0-3.41-1.53-3.41-3.41 0-0.505 0.112-0.995 0.332-1.459l0.144-0.302-0.214-0.258c-0.507-0.611-0.786-1.383-0.786-2.177 0-1.619 1.15-3.025 2.735-3.343l0.402-0.080 0.019-0.409c0.085-1.822 1.579-3.25 3.401-3.25 0.41 0 0.818 0.076 1.212 0.226l0.401 0.152 0.229-0.361c0.63-0.996 1.707-1.591 2.879-1.591 0.615 0 1.209 0.168 1.73 0.478-0.976 0.663-1.716 1.603-2.133 2.691-1.084 0.1-2.107 0.594-2.855 1.394l0.766 0.716c0.489-0.523 1.108-0.87 1.79-1.011-0.055 0.319-0.085 0.645-0.085 0.978 0 1.104 0.313 2.177 0.905 3.103l0.884-0.564c-0.485-0.758-0.74-1.635-0.74-2.539 0-1.866 1.082-3.518 2.765-4.286 1.258-0.574 2.705-0.562 3.929-0.003l0.774-0.774c-1.484-0.804-3.297-0.925-4.881-0.29l-0.004-0.009c-0.027 0.011-0.051 0.024-0.078 0.035-0.787-0.626-1.757-0.968-2.768-0.968-1.395 0-2.687 0.643-3.53 1.739-0.391-0.11-0.79-0.165-1.192-0.165-2.251 0-4.119 1.664-4.414 3.855-1.872 0.553-3.193 2.293-3.193 4.276 0 0.929 0.292 1.836 0.828 2.588-0.202 0.516-0.304 1.055-0.304 1.609 0 2.459 2 4.459 4.459 4.459 0.199 0 0.393-0.018 0.585-0.043 0.036-0.005 0.072-0.011 0.109-0.017 0.194-0.030 0.385-0.071 0.571-0.126 0.721 0.466 1.548 0.71 2.407 0.71 0.962 0 1.878-0.303 2.638-0.863 0.827 1.194 2.177 1.913 3.658 1.913 1.376 0 2.642-0.62 3.485-1.682 0.69 0.416 1.47 0.633 2.286 0.633 2.459 0 4.459-2 4.459-4.459 0-0.143-0.008-0.284-0.021-0.425-0.005-0.056-0.015-0.111-0.023-0.166-0.011-0.081-0.021-0.162-0.037-0.242z"></path>
<path fill="#333" d="M26.23 4.503l-2.578 2.578 1.574 1.574-7.071 7.071c-0.806-0.644-1.826-1.032-2.936-1.032v1.049c2.021 0 3.666 1.645 3.666 3.666h1.049c0-1.113-0.39-2.135-1.037-2.943l7.070-7.070 1.574 1.574 2.578-2.578-3.889-3.889zM25.136 7.081l1.094-1.094 2.406 2.406-1.094 1.094-2.406-2.406z"></path>
</svg>
