<!-- Generated by IcoMoon.io -->
<svg version="1.1" xmlns="http://www.w3.org/2000/svg" width="32" height="32" viewBox="0 0 32 32">
<title>bulb</title>
<path fill="#f9ba48" d="M10.802 14.219h-5.078v-1.79c-1.26-0.844-2.031-2.273-2.031-3.796 0-2.52 2.050-4.57 4.57-4.57s4.57 2.050 4.57 4.57c0 1.523-0.771 2.951-2.031 3.796v1.789z"></path>
<path fill="#333" d="M11.309 15.997c0-0.16-0.033-0.311-0.087-0.452 0.356-0.225 0.595-0.62 0.595-1.071 0-0.7-0.569-1.269-1.269-1.269h-1.777v-3.14c0.59-0.21 1.016-0.769 1.016-1.43 0-0.84-0.683-1.523-1.523-1.523s-1.523 0.683-1.523 1.523c0 0.661 0.426 1.22 1.016 1.43v3.14h-1.777c-0.7 0-1.269 0.569-1.269 1.269 0 0.452 0.239 0.846 0.595 1.071-0.054 0.141-0.087 0.293-0.087 0.452 0 0.41 0.198 0.77 0.5 1.003v10.557l2.539 4.443 2.539-4.443v-10.545c0.311-0.232 0.516-0.599 0.516-1.016zM8.263 8.126c0.28 0 0.508 0.227 0.508 0.508s-0.227 0.508-0.508 0.508c-0.28 0-0.508-0.227-0.508-0.508s0.228-0.508 0.508-0.508zM9.778 26.914h-1.016v-9.648h1.016v9.648zM6.731 26.914v-9.648h1.016v9.648h-1.016zM6.485 16.251c-0.14 0-0.254-0.114-0.254-0.254s0.114-0.254 0.254-0.254h3.554c0.14 0 0.254 0.114 0.254 0.254s-0.114 0.254-0.254 0.254h-3.554zM5.978 14.219h4.57c0.14 0 0.254 0.114 0.254 0.254s-0.114 0.254-0.254 0.254h-4.57c-0.14 0-0.254-0.114-0.254-0.254s0.114-0.254 0.254-0.254zM7.098 27.93h2.312l-1.156 2.023-1.156-2.023z"></path>
<path fill="#333" d="M13.724 3.586c1.061 1.274 1.64 2.861 1.64 4.539 0 1.899-0.739 3.684-2.082 5.027l0.718 0.718c1.535-1.535 2.38-3.574 2.38-5.745 0-1.854-0.622-3.61-1.779-5.060l0.936-0.187-0.2-0.996-2.016 0.404-1.193 1.987 0.871 0.522 0.726-1.209z"></path>
<path fill="#333" d="M2.785 12.663c-1.060-1.274-1.639-2.861-1.639-4.539 0-1.899 0.739-3.684 2.082-5.027 2.009-2.010 5.016-2.628 7.658-1.577l0.376-0.943c-3.022-1.202-6.455-0.494-8.752 1.803-1.535 1.534-2.38 3.574-2.38 5.744 0 1.857 0.624 3.617 1.777 5.061l-0.934 0.186 0.2 0.996 2.016-0.403 1.193-1.988-0.871-0.523-0.726 1.21z"></path>
<path fill="#333" d="M28.42 13.468c0.214-1.389 0.178-2.772-0.107-4.115-1.154-5.435-5.949-9.342-11.435-9.342-0.049 0-0.099 0.001-0.148 0.001l0.013 1.016c5.067-0.065 9.511 3.526 10.576 8.537 0.271 1.274 0.294 2.59 0.070 3.912l-0.030 0.177 2.963 5.3-3.288 0.752v6.193h-5.078v4.57h-10.664v1.016h11.679v-4.57h5.078v-6.4l3.821-0.873-3.45-6.173z"></path>
</svg>
