<!-- Generated by IcoMoon.io -->
<svg version="1.1" xmlns="http://www.w3.org/2000/svg" width="32" height="32" viewBox="0 0 32 32">
<title>certificate</title>
<path fill="#f9ba48" d="M11.289 7.48c0.364-0.508 0.582-1.129 0.582-1.802 0-1.71-1.386-3.097-3.097-3.097s-3.097 1.386-3.097 3.097c0 0.673 0.217 1.294 0.582 1.802l-1.614 6.456 1.548-1.032 1.032 2.065 1.099-6.23c0.147 0.021 0.296 0.036 0.449 0.036s0.302-0.015 0.449-0.036l1.099 6.23 1.032-2.065 1.548 1.032-1.614-6.456z"></path>
<path fill="#333" d="M8.774 9.29c1.992 0 3.613-1.621 3.613-3.613s-1.621-3.613-3.613-3.613-3.613 1.621-3.613 3.613 1.621 3.613 3.613 3.613zM8.774 3.097c1.423 0 2.581 1.158 2.581 2.581s-1.158 2.581-2.581 2.581-2.581-1.158-2.581-2.581 1.158-2.581 2.581-2.581z"></path>
<path fill="#333" d="M30.452 8.258c-0.398 0-0.758 0.155-1.032 0.403-0.275-0.248-0.634-0.403-1.032-0.403h-5.677v-1.772l-6.496-6.486h-16.214v32h22.71v-17.548h1.032v17.548h3.097v-17.548h1.548c0.398 0 0.758-0.155 1.032-0.403 0.275 0.248 0.634 0.403 1.032 0.403 0.854 0 1.548-0.695 1.548-1.548v-3.097c0-0.854-0.695-1.548-1.548-1.548zM16.516 1.761l4.439 4.433h-4.439v-4.433zM1.032 30.968v-29.935h14.452v6.194h6.194v1.127c-0.193 0.069-0.367 0.173-0.516 0.308-0.275-0.248-0.634-0.403-1.032-0.403-0.854 0-1.548 0.695-1.548 1.548v3.097c0 0.854 0.695 1.548 1.548 1.548 0.398 0 0.758-0.155 1.032-0.403 0.149 0.134 0.323 0.239 0.516 0.308v16.611h-20.645zM20.645 12.903c0 0.285-0.231 0.516-0.516 0.516s-0.516-0.231-0.516-0.516v-3.097c0-0.285 0.231-0.516 0.516-0.516s0.516 0.231 0.516 0.516v3.097zM25.806 30.968h-1.032v-16.516h1.032v16.516zM28.387 13.419h-6.194c-0.285 0-0.516-0.231-0.516-0.516v-3.097c0-0.285 0.231-0.516 0.516-0.516h6.194c0.285 0 0.516 0.231 0.516 0.516v3.097c0 0.285-0.231 0.516-0.516 0.516zM30.968 12.903c0 0.285-0.231 0.516-0.516 0.516s-0.516-0.231-0.516-0.516v-3.097c0-0.285 0.231-0.516 0.516-0.516s0.516 0.231 0.516 0.516v3.097z"></path>
<path fill="#333" d="M2.581 18.065h17.548v1.032h-17.548v-1.032z"></path>
<path fill="#333" d="M2.581 20.645h17.548v1.032h-17.548v-1.032z"></path>
<path fill="#333" d="M2.581 23.226h17.548v1.032h-17.548v-1.032z"></path>
<path fill="#333" d="M2.581 25.806h17.548v1.032h-17.548v-1.032z"></path>
<path fill="#333" d="M2.581 28.387h17.548v1.032h-17.548v-1.032z"></path>
</svg>
