<!-- Generated by IcoMoon.io -->
<svg version="1.1" xmlns="http://www.w3.org/2000/svg" width="32" height="32" viewBox="0 0 32 32">
<title>chat</title>
<path fill="#333" d="M24.326 32l0.899-2.698h-12.903c-1.090 0-1.977-0.887-1.977-1.977v-6.763h1.028v6.763c0 0.523 0.425 0.948 0.948 0.948h14.33l-0.471 1.415 2.358-1.415h1.422c0.523 0 0.948-0.425 0.948-0.948v-8.385c0-0.523-0.425-0.948-0.948-0.948h-10.875v-1.028h10.875c1.090 0 1.977 0.887 1.977 1.977v8.385c0 1.089-0.887 1.976-1.977 1.976h-1.137l-4.497 2.698z"></path>
<path fill="#f9ba48" d="M11.887 11.824h7.711v7.277c0 1.090-0.887 1.977-1.977 1.977h-0.594l1.028 2.57-4.627-2.57h-11.389c-1.090 0-1.977-0.887-1.977-1.977v-8.385c0-1.090 0.887-1.977 1.977-1.977h8.819v2.056l1.028 1.028z"></path>
<path fill="#333" d="M24.326 15.036l0.899-2.698h-12.903c-1.090 0-1.977-0.887-1.977-1.977v-8.385c0-1.090 0.887-1.977 1.977-1.977h17.638c1.089 0 1.976 0.887 1.976 1.977v8.385c0 1.089-0.887 1.976-1.977 1.976h-1.137l-4.497 2.698zM12.322 1.028c-0.523 0-0.948 0.425-0.948 0.948v8.385c0 0.523 0.425 0.948 0.948 0.948h14.33l-0.471 1.415 2.358-1.415h1.422c0.523 0 0.948-0.425 0.948-0.948v-8.385c0-0.523-0.425-0.948-0.948-0.948h-17.638z"></path>
<path fill="#333" d="M12.916 3.084h16.45v1.028h-16.45v-1.028z"></path>
<path fill="#333" d="M12.916 5.655h16.45v1.028h-16.45v-1.028z"></path>
<path fill="#333" d="M12.916 8.225h13.88v1.028h-13.88v-1.028z"></path>
<path fill="#333" d="M28.338 8.225h1.028v1.028h-1.028v-1.028z"></path>
<path fill="#333" d="M2.634 11.824h6.683v1.028h-6.683v-1.028z"></path>
<path fill="#333" d="M2.634 14.394h14.394v1.028h-14.394v-1.028z"></path>
<path fill="#333" d="M2.634 16.964h11.824v1.028h-11.824v-1.028z"></path>
<path fill="#333" d="M16 16.964h1.028v1.028h-1.028v-1.028z"></path>
<path fill="#333" d="M21.141 20.049h8.225v1.028h-8.225v-1.028z"></path>
<path fill="#333" d="M19.599 22.619h9.767v1.028h-9.767v-1.028z"></path>
<path fill="#333" d="M12.916 25.19h13.88v1.028h-13.88v-1.028z"></path>
<path fill="#333" d="M28.338 25.19h1.028v1.028h-1.028v-1.028z"></path>
</svg>
