<!-- Generated by IcoMoon.io -->
<svg version="1.1" xmlns="http://www.w3.org/2000/svg" width="32" height="32" viewBox="0 0 32 32">
<title>clock</title>
<path fill="#f9ba48" d="M24.258 16c0 4.561-3.697 8.258-8.258 8.258s-8.258-3.697-8.258-8.258c0-4.561 3.697-8.258 8.258-8.258s8.258 3.697 8.258 8.258z"></path>
<path fill="#333" d="M16 4.645c-6.261 0-11.355 5.094-11.355 11.355s5.094 11.355 11.355 11.355 11.355-5.094 11.355-11.355-5.094-11.355-11.355-11.355zM16 26.323c-5.692 0-10.323-4.631-10.323-10.323s4.631-10.323 10.323-10.323 10.323 4.631 10.323 10.323-4.631 10.323-10.323 10.323z"></path>
<path fill="#333" d="M15.484 15.484h-6.71v1.032h7.742v-7.742h-1.032z"></path>
<path fill="#333" d="M16.516 7.226c0 0.285-0.231 0.516-0.516 0.516s-0.516-0.231-0.516-0.516c0-0.285 0.231-0.516 0.516-0.516s0.516 0.231 0.516 0.516z"></path>
<path fill="#333" d="M16.516 24.774c0 0.285-0.231 0.516-0.516 0.516s-0.516-0.231-0.516-0.516c0-0.285 0.231-0.516 0.516-0.516s0.516 0.231 0.516 0.516z"></path>
<path fill="#333" d="M25.29 16c0 0.285-0.231 0.516-0.516 0.516s-0.516-0.231-0.516-0.516c0-0.285 0.231-0.516 0.516-0.516s0.516 0.231 0.516 0.516z"></path>
<path fill="#333" d="M7.742 16c0 0.285-0.231 0.516-0.516 0.516s-0.516-0.231-0.516-0.516c0-0.285 0.231-0.516 0.516-0.516s0.516 0.231 0.516 0.516z"></path>
<path fill="#333" d="M3.65 22.002l-0.597 1.492c-1.322-2.276-2.021-4.845-2.021-7.494 0-8.253 6.715-14.968 14.968-14.968 3.413 0 6.754 1.182 9.406 3.328l0.649-0.803c-2.836-2.294-6.407-3.558-10.056-3.558-8.823 0-16 7.177-16 16 0 2.854 0.76 5.621 2.195 8.068l-1.578-0.315-0.202 1.012 3.001 0.6 1.192-2.979-0.959-0.383z"></path>
<path fill="#333" d="M5.161 26.323c0 0.285-0.231 0.516-0.516 0.516s-0.516-0.231-0.516-0.516c0-0.285 0.231-0.516 0.516-0.516s0.516 0.231 0.516 0.516z"></path>
<path fill="#333" d="M29.805 7.932l1.578 0.315 0.203-1.012-3.001-0.6-1.192 2.979 0.958 0.383 0.597-1.492c1.322 2.276 2.021 4.846 2.021 7.495 0 8.253-6.715 14.968-14.968 14.968-3.413 0-6.754-1.182-9.406-3.328l-0.649 0.803c2.836 2.294 6.407 3.558 10.056 3.558 8.823 0 16-7.177 16-16 0-2.854-0.76-5.621-2.195-8.068z"></path>
<path fill="#333" d="M27.871 5.677c0 0.285-0.231 0.516-0.516 0.516s-0.516-0.231-0.516-0.516c0-0.285 0.231-0.516 0.516-0.516s0.516 0.231 0.516 0.516z"></path>
</svg>
