<!-- Generated by IcoMoon.io -->
<svg version="1.1" xmlns="http://www.w3.org/2000/svg" width="32" height="32" viewBox="0 0 32 32">
<title>coins</title>
<path fill="#333" d="M5.161 26.323c0 0.285-0.231 0.516-0.516 0.516s-0.516-0.231-0.516-0.516c0-0.285 0.231-0.516 0.516-0.516s0.516 0.231 0.516 0.516z"></path>
<path fill="#333" d="M29.805 7.932l1.578 0.315 0.203-1.012-3.001-0.6-1.192 2.979 0.958 0.383 0.597-1.492c1.322 2.276 2.021 4.846 2.021 7.495 0 8.253-6.715 14.968-14.968 14.968-3.413 0-6.754-1.182-9.406-3.328l-0.649 0.803c2.836 2.294 6.407 3.558 10.056 3.558 8.823 0 16-7.177 16-16 0-2.854-0.76-5.621-2.195-8.068z"></path>
<path fill="#333" d="M25.406 4.36l0.649-0.803c-2.836-2.294-6.407-3.558-10.056-3.558-8.823 0-16 7.177-16 16 0 2.854 0.76 5.621 2.195 8.068l-1.578-0.315-0.202 1.012 3.001 0.6 1.192-2.979-0.958-0.383-0.597 1.492c-1.322-2.276-2.021-4.845-2.021-7.494 0-8.253 6.715-14.968 14.968-14.968 3.413 0 6.754 1.182 9.406 3.328z"></path>
<path fill="#333" d="M27.871 5.677c0 0.285-0.231 0.516-0.516 0.516s-0.516-0.231-0.516-0.516c0-0.285 0.231-0.516 0.516-0.516s0.516 0.231 0.516 0.516z"></path>
<path fill="#333" d="M6.71 20.645h0.516v1.032h-1.032v3.097h13.419v-1.032h-4.129v-1.032h1.032v-1.032h-2.065v-1.032h1.032v-1.032h-1.548v-1.032h1.032v-2.065h0.516v-2.065h1.032v-1.032h-0.516v-1.032h1.032v0.516h1.032v-0.516h2.065v-1.032h-1.032v-1.032h0.516v-3.097h-13.419v2.065h-0.516v3.097h1.032v1.032h-0.516v2.065h-0.516v3.097h1.032v2.065zM10.323 22.71v1.032h-1.032v-1.032h1.032zM11.355 22.71h1.032v1.032h-1.032v-1.032zM10.323 21.677v-1.032h1.032v1.032h-1.032zM9.806 19.613v-1.032h1.032v1.032h-1.032zM10.839 17.548v-1.032h1.032v1.032h-1.032zM11.355 15.484v-1.032h1.032v1.032h-1.032zM11.871 13.419v-1.032h1.032v1.032h-1.032zM11.871 10.323v1.032h-1.032v-1.032h1.032zM13.935 10.323v1.032h-1.032v-1.032h1.032zM14.968 10.323h1.032v1.032h-1.032v-1.032zM15.484 9.29v-1.032h1.032v1.032h-1.032zM14.452 9.29h-1.032v-1.032h1.032v1.032zM12.387 9.29h-1.032v-1.032h1.032v1.032zM10.323 9.29h-1.032v-1.032h1.032v1.032zM9.806 10.323v1.032h-1.032v-1.032h1.032zM10.839 12.387v1.032h-1.032v-1.032h1.032zM10.323 14.452v1.032h-1.032v-1.032h1.032zM9.806 16.516v1.032h-1.032v-1.032h1.032zM8.774 18.581v1.032h-1.032v-1.032h1.032zM8.258 20.645h1.032v1.032h-1.032v-1.032zM7.226 22.71h1.032v1.032h-1.032v-1.032zM14.452 23.742h-1.032v-1.032h1.032v1.032zM13.419 21.677h-1.032v-1.032h1.032v1.032zM12.903 19.613h-1.032v-1.032h1.032v1.032zM13.935 17.548h-1.032v-1.032h1.032v1.032zM14.452 15.484h-1.032v-1.032h1.032v1.032zM14.968 13.419h-1.032v-1.032h1.032v1.032zM18.065 11.355h-1.032v-1.032h1.032v1.032zM18.581 9.29h-1.032v-1.032h1.032v1.032zM7.226 8.258h1.032v1.032h-1.032v-1.032zM6.71 10.323h1.032v1.032h-1.032v-1.032zM7.742 12.387h1.032v1.032h-1.032v-1.032zM7.226 14.452h1.032v1.032h-1.032v-1.032zM6.71 16.516h1.032v1.032h-1.032v-1.032z"></path>
<path fill="#f9ba48" d="M21.161 24.774c-3.7 0-6.71-3.010-6.71-6.71s3.010-6.71 6.71-6.71 6.71 3.010 6.71 6.71-3.010 6.71-6.71 6.71z"></path>
<path fill="#333" d="M24.774 16.516v-0.258c0-1.281-1.042-2.323-2.323-2.323h-0.774v-1.032h-1.032v1.032h-0.774c-1.281 0-2.323 1.042-2.323 2.323s1.042 2.323 2.323 2.323h2.581c0.712 0 1.29 0.579 1.29 1.29s-0.579 1.29-1.29 1.29h-2.581c-0.712 0-1.29-0.579-1.29-1.29v-0.258h-1.032v0.258c0 1.281 1.042 2.323 2.323 2.323h0.774v1.032h1.032v-1.032h0.774c1.281 0 2.323-1.042 2.323-2.323s-1.042-2.323-2.323-2.323h-2.581c-0.712 0-1.29-0.579-1.29-1.29s0.579-1.29 1.29-1.29h2.581c0.712 0 1.29 0.579 1.29 1.29v0.258h1.032z"></path>
</svg>
