<!-- Generated by IcoMoon.io -->
<svg version="1.1" xmlns="http://www.w3.org/2000/svg" width="32" height="32" viewBox="0 0 32 32">
<title>connection</title>
<path fill="#333" d="M16.031 0.031c-5.397 0-9.787 4.39-9.787 9.787s4.39 9.787 9.787 9.787 9.787-4.39 9.787-9.787-4.39-9.787-9.787-9.787zM24.762 9.303h-3.282c-0.010-0.287-0.025-0.571-0.050-0.846l-1.026 0.097c0.023 0.244 0.037 0.495 0.046 0.749h-3.904v-3.012c1.101-0.057 2.172-0.286 3.173-0.694 0.14 0.361 0.269 0.739 0.375 1.151l0.998-0.255c-0.123-0.481-0.275-0.922-0.439-1.34 0.643-0.346 1.246-0.771 1.805-1.261 1.331 1.443 2.181 3.329 2.303 5.412zM13.067 13.779c-0.245 0.078-0.485 0.169-0.723 0.266-0.397-1.024-0.666-2.258-0.72-3.712h3.892v3.013c-0.153 0.008-0.307 0.008-0.459 0.023l0.101 1.025c0.12-0.012 0.238-0.009 0.357-0.015v3.803c-0.735-0.514-1.877-1.521-2.74-3.189 0.2-0.081 0.398-0.166 0.603-0.232l-0.312-0.981zM12.272 3.421c-0.159 0.254-0.304 0.517-0.441 0.785-0.526-0.289-1.023-0.636-1.487-1.034 1.056-0.905 2.326-1.56 3.726-1.882-0.189 0.168-0.382 0.349-0.579 0.557l0.747 0.709c0.47-0.496 0.92-0.853 1.278-1.101v3.805c-0.956-0.056-1.886-0.257-2.757-0.608 0.12-0.234 0.248-0.463 0.387-0.684l-0.874-0.547zM16.546 1.459c0.739 0.518 1.892 1.523 2.756 3.194-0.871 0.351-1.801 0.552-2.756 0.608v-3.802zM18.003 1.294c1.395 0.323 2.663 0.977 3.715 1.879-0.463 0.397-0.959 0.743-1.484 1.032-0.669-1.315-1.499-2.259-2.231-2.911zM15.516 6.291v3.012h-3.899c0.049-1.345 0.292-2.585 0.725-3.707 1.002 0.409 2.073 0.638 3.175 0.695zM14.044 18.34c-1.387-0.323-2.648-0.974-3.696-1.871 0.457-0.391 0.951-0.735 1.476-1.025 0.664 1.302 1.489 2.244 2.219 2.896zM16.546 18.19v-3.809c0.951 0.057 1.879 0.266 2.753 0.619-0.866 1.684-2.014 2.684-2.753 3.191zM20.238 15.444c0.523 0.287 1.018 0.628 1.478 1.023-1.048 0.897-2.309 1.549-3.697 1.872 0.73-0.651 1.555-1.593 2.219-2.895zM16.546 13.346v-3.012h3.893c-0.054 1.456-0.319 2.689-0.71 3.711-1.004-0.41-2.079-0.641-3.183-0.698zM9.603 3.892c0.56 0.489 1.162 0.915 1.805 1.26-0.496 1.258-0.771 2.647-0.822 4.151h-3.286c0.122-2.083 0.972-3.969 2.303-5.412zM7.3 10.334h3.282c0.055 1.637 0.367 3.013 0.815 4.159-0.642 0.347-1.248 0.764-1.8 1.246-1.327-1.442-2.175-3.325-2.296-5.405zM22.459 15.746c-0.556-0.486-1.155-0.909-1.794-1.254 0.448-1.146 0.76-2.521 0.814-4.158h3.282c-0.122 2.083-0.971 3.969-2.303 5.412z"></path>
<path fill="#333" d="M31.99 23.828l0.010-3.192-1.035-5.224-0.35-2.446c-0.063-0.44-0.311-0.834-0.678-1.082-0.369-0.247-0.828-0.329-1.258-0.22-0.772 0.193-1.271 0.926-1.177 1.712-0.456-0.039-0.926 0.108-1.275 0.457-0.454 0.454-0.574 1.113-0.371 1.681-0.244 0.072-0.474 0.194-0.659 0.38-0.454 0.454-0.574 1.113-0.371 1.681-0.244 0.072-0.474 0.194-0.659 0.38-0.304 0.303-0.471 0.707-0.471 1.137s0.167 0.833 0.471 1.137l1.607 1.607-0.47 0.706v3.247h-0.515v6.181h7.212v-6.181h-0.402l0.392-1.96zM26.955 14.561c0.192-0.192 0.48-0.21 0.702-0.076l0.221 1.552v0.265l-0.924-0.924c-0.109-0.109-0.169-0.254-0.169-0.409s0.060-0.299 0.169-0.409zM25.925 16.622c0.218-0.218 0.599-0.218 0.817 0l0.978 0.978c-0.219 0.267-0.356 0.604-0.356 0.976v0.302l-1.439-1.439c-0.109-0.109-0.169-0.254-0.169-0.409s0.060-0.299 0.169-0.409zM24.895 19.499c-0.109-0.109-0.169-0.254-0.169-0.409s0.060-0.299 0.169-0.409c0.226-0.226 0.591-0.226 0.817 0l1.298 1.298-0.654 0.98-1.461-1.461zM26.334 22.853l2.061-3.091v-1.186c0-0.284 0.231-0.515 0.515-0.515s0.515 0.231 0.515 0.515v3.606h1.030v-3.606c0-0.852-0.693-1.545-1.545-1.545v-1.030l-0.385-2.736c-0.039-0.275 0.134-0.534 0.404-0.602 0.152-0.037 0.305-0.010 0.434 0.076s0.212 0.219 0.233 0.373l0.354 2.475 1.020 5.101v2.989l-0.422 2.111h-4.214v-2.935zM30.97 30.939h-5.151v-4.121h5.151v4.121z"></path>
<path fill="#333" d="M7.177 17.564c0.199-0.566 0.078-1.22-0.373-1.672-0.19-0.189-0.417-0.314-0.657-0.389 0.199-0.566 0.078-1.22-0.373-1.672-0.349-0.348-0.819-0.495-1.275-0.456 0.095-0.787-0.404-1.52-1.177-1.713-0.431-0.109-0.89-0.027-1.258 0.22s-0.616 0.642-0.678 1.082l-0.345 2.418-1.030 5.151-0.010 3.192 0.404 2.061h-0.404v6.181h7.212v-6.181h-0.515v-3.247l-0.47-0.706 1.607-1.607c0.304-0.303 0.471-0.707 0.471-1.137s-0.167-0.833-0.471-1.137c-0.19-0.189-0.417-0.314-0.657-0.389zM6.075 17.439l-1.439 1.438v-0.301c0-0.372-0.137-0.708-0.356-0.976l0.978-0.978c0.226-0.226 0.591-0.226 0.817 0 0.109 0.109 0.169 0.254 0.169 0.409s-0.060 0.299-0.169 0.409zM5.045 14.561c0.109 0.109 0.169 0.254 0.169 0.409s-0.060 0.299-0.169 0.409l-0.924 0.924v-0.265l0.221-1.552c0.222-0.133 0.51-0.115 0.702 0.077zM6.181 30.939h-5.151v-4.121h5.151v4.121zM1.453 25.787l-0.422-2.111v-2.989l1.025-5.129 0.35-2.446c0.022-0.154 0.105-0.286 0.233-0.373 0.129-0.085 0.282-0.114 0.433-0.076 0.27 0.068 0.444 0.327 0.404 0.602l-0.38 2.663-0.004 1.103c-0.001 0-0.001 0-0.002 0-0.852 0-1.545 0.693-1.545 1.545v3.606h1.030v-3.606c0-0.284 0.231-0.515 0.515-0.515s0.515 0.231 0.515 0.515v1.186l2.061 3.091v2.935h-4.214zM7.105 19.499l-1.462 1.462-0.654-0.981 1.298-1.298c0.226-0.226 0.591-0.226 0.817 0 0.11 0.109 0.169 0.254 0.169 0.409s-0.060 0.299-0.169 0.409z"></path>
<path fill="#f9ba48" d="M13.234 4.35c-0.795 0-1.442-0.647-1.442-1.442s0.647-1.442 1.442-1.442 1.443 0.647 1.443 1.442-0.648 1.442-1.443 1.442z"></path>
<path fill="#f9ba48" d="M20.813 8.989c-0.795 0-1.442-0.647-1.442-1.442s0.647-1.442 1.442-1.442 1.442 0.647 1.442 1.442-0.647 1.442-1.442 1.442z"></path>
<path fill="#f9ba48" d="M14.15 15.486c-0.795 0-1.442-0.647-1.442-1.442s0.647-1.443 1.442-1.443 1.443 0.648 1.443 1.443-0.648 1.442-1.443 1.442z"></path>
</svg>
