<!-- Generated by IcoMoon.io -->
<svg version="1.1" xmlns="http://www.w3.org/2000/svg" width="32" height="32" viewBox="0 0 32 32">
<title>diagram</title>
<path fill="#333" d="M27.355 12.903v-4.129h-8.044l-2.278-2.278v-1.869c2.092-0.135 3.613-1.079 3.613-2.305 0-1.324-1.775-2.323-4.129-2.323s-4.129 0.999-4.129 2.323c0 1.225 1.521 2.17 3.613 2.305v1.869l-2.278 2.278h-8.044v4.129h-3.613v5.161h8.258v-2.065h5.677v3.613h-10.839v2.581h1.032v-1.548h20.645v1.548h1.032v-2.581h-10.839v-3.613h5.677v2.065h8.258v-5.161h-3.613zM13.419 2.323c0-0.539 1.178-1.29 3.097-1.29s3.097 0.751 3.097 1.29-1.178 1.29-3.097 1.29-3.097-0.751-3.097-1.29zM16.516 7.439l1.851 1.851-1.851 1.851-1.851-1.851 1.851-1.851zM9.29 17.032h-6.194v-3.097h6.194v3.097zM10.323 14.968v-2.065h-3.613v-3.097h7.012l2.794 2.794 2.794-2.794h7.012v3.097h-3.613v2.065h-12.387zM29.935 17.032h-6.194v-3.097h6.194v3.097z"></path>
<path fill="#f9ba48" d="M29.935 32h-5.161v-2.973c-0.974-0.782-1.548-1.966-1.548-3.221 0-2.277 1.852-4.129 4.129-4.129s4.129 1.852 4.129 4.129c0 1.255-0.574 2.439-1.548 3.221v2.973z"></path>
<path fill="#f9ba48" d="M10.839 28.387v-3.097h-1.334c-0.009-0.021-0.018-0.042-0.026-0.063l0.943-0.943-2.189-2.189-0.943 0.943c-0.021-0.009-0.042-0.018-0.063-0.026v-1.334h-3.097v1.334c-0.021 0.009-0.042 0.018-0.063 0.026l-0.943-0.943-2.189 2.189 0.943 0.943c-0.009 0.021-0.018 0.042-0.026 0.063h-1.334v3.097h1.334c0.009 0.021 0.018 0.042 0.026 0.063l-0.943 0.942 2.189 2.19 0.943-0.943c0.021 0.009 0.042 0.018 0.063 0.026v1.334h3.097v-1.334c0.021-0.009 0.042-0.018 0.063-0.026l0.943 0.943 2.189-2.19-0.943-0.942c0.009-0.021 0.018-0.042 0.026-0.063h1.334zM5.677 28.387c-0.855 0-1.548-0.693-1.548-1.548s0.693-1.548 1.548-1.548 1.548 0.693 1.548 1.548-0.693 1.548-1.548 1.548z"></path>
<path fill="#333" d="M27.871 27.26c0.599-0.214 1.032-0.781 1.032-1.453 0-0.854-0.695-1.548-1.548-1.548s-1.548 0.695-1.548 1.548c0 0.672 0.433 1.24 1.032 1.453v2.159h-2.581v1.032h6.194v-1.032h-2.581v-2.159zM27.355 25.29c0.285 0 0.516 0.231 0.516 0.516s-0.231 0.516-0.516 0.516-0.516-0.231-0.516-0.516 0.231-0.516 0.516-0.516z"></path>
<path fill="#333" d="M5.677 24.774c-1.139 0-2.065 0.926-2.065 2.065s0.926 2.065 2.065 2.065 2.065-0.926 2.065-2.065-0.926-2.065-2.065-2.065zM5.677 27.871c-0.569 0-1.032-0.463-1.032-1.032s0.463-1.032 1.032-1.032 1.032 0.463 1.032 1.032-0.463 1.032-1.032 1.032z"></path>
</svg>
