<!-- Generated by IcoMoon.io -->
<svg version="1.1" xmlns="http://www.w3.org/2000/svg" width="32" height="32" viewBox="0 0 32 32">
<title>diagram-1</title>
<path fill="#f9ba48" d="M2.478 5.201h27.043v15.602h-27.043v-15.602z"></path>
<path fill="#333" d="M17.465 2.080c0.058-0.163 0.096-0.337 0.096-0.52 0-0.86-0.7-1.56-1.56-1.56s-1.56 0.7-1.56 1.56c0 0.183 0.037 0.357 0.096 0.52h-13.617v3.12h30.164v-3.12h-13.617zM15.48 1.56c0-0.287 0.233-0.52 0.52-0.52s0.52 0.233 0.52 0.52-0.233 0.52-0.52 0.52-0.52-0.233-0.52-0.52zM30.042 4.16h-28.083v-1.040h28.083v1.040z"></path>
<path fill="#333" d="M0.918 23.923h10.503l-4.703 7.525 0.881 0.552 5.048-8.077h2.832v7.801h1.040v-7.801h2.832l5.048 8.077 0.881-0.552-4.703-7.525h10.503v-3.12h-30.164v3.12zM1.958 21.843h28.083v1.040h-28.083v-1.040z"></path>
<path fill="#333" d="M5.079 18.202v1.56h3.12v-1.56c0-0.543-0.279-1.020-0.701-1.3 0.422-0.28 0.701-0.757 0.701-1.3 0-0.677-0.436-1.249-1.040-1.464v-0.616h5.201v0.616c-0.604 0.215-1.040 0.787-1.040 1.464 0 0.543 0.279 1.020 0.701 1.3-0.422 0.28-0.701 0.757-0.701 1.3v1.56h3.12v-1.56c0-0.543-0.279-1.020-0.701-1.3 0.422-0.28 0.701-0.757 0.701-1.3 0-0.677-0.436-1.249-1.040-1.464v-0.616h5.201v0.616c-0.604 0.215-1.040 0.787-1.040 1.464 0 0.543 0.279 1.020 0.701 1.3-0.422 0.28-0.701 0.757-0.701 1.3v1.56h3.12v-1.56c0-0.543-0.279-1.020-0.701-1.3 0.422-0.28 0.701-0.757 0.701-1.3 0-0.677-0.436-1.249-1.040-1.464v-0.616h5.201v0.616c-0.604 0.215-1.040 0.787-1.040 1.464 0 0.543 0.279 1.020 0.701 1.3-0.422 0.28-0.701 0.757-0.701 1.3v1.56h3.12v-1.56c0-0.543-0.279-1.020-0.701-1.3 0.422-0.28 0.701-0.757 0.701-1.3 0-0.677-0.436-1.249-1.040-1.464v-1.656h-9.361v-1.040h1.040v-1.56c0-0.543-0.279-1.020-0.701-1.3 0.422-0.28 0.701-0.757 0.701-1.3 0-0.86-0.7-1.56-1.56-1.56s-1.56 0.7-1.56 1.56c0 0.543 0.279 1.020 0.701 1.3-0.422 0.28-0.701 0.757-0.701 1.3v1.56h1.040v1.040h-9.361v1.656c-0.604 0.215-1.040 0.787-1.040 1.464 0 0.543 0.279 1.020 0.701 1.3-0.422 0.28-0.701 0.757-0.701 1.3zM12.88 15.082c0.287 0 0.52 0.233 0.52 0.52s-0.233 0.52-0.52 0.52-0.52-0.233-0.52-0.52 0.233-0.52 0.52-0.52zM13.4 18.722h-1.040v-0.52c0-0.287 0.233-0.52 0.52-0.52s0.52 0.233 0.52 0.52v0.52zM19.12 15.082c0.287 0 0.52 0.233 0.52 0.52s-0.233 0.52-0.52 0.52c-0.287 0-0.52-0.233-0.52-0.52s0.233-0.52 0.52-0.52zM19.64 18.722h-1.040v-0.52c0-0.287 0.233-0.52 0.52-0.52s0.52 0.233 0.52 0.52v0.52zM25.361 15.082c0.287 0 0.52 0.233 0.52 0.52s-0.233 0.52-0.52 0.52c-0.287 0-0.52-0.233-0.52-0.52s0.233-0.52 0.52-0.52zM25.881 18.722h-1.040v-0.52c0-0.287 0.233-0.52 0.52-0.52s0.52 0.233 0.52 0.52v0.52zM16.52 10.401h-1.040v-0.52c0-0.287 0.233-0.52 0.52-0.52s0.52 0.233 0.52 0.52v0.52zM16 6.761c0.287 0 0.52 0.233 0.52 0.52s-0.233 0.52-0.52 0.52-0.52-0.233-0.52-0.52 0.233-0.52 0.52-0.52zM7.159 18.722h-1.040v-0.52c0-0.287 0.233-0.52 0.52-0.52s0.52 0.233 0.52 0.52v0.52zM6.639 15.082c0.287 0 0.52 0.233 0.52 0.52s-0.233 0.52-0.52 0.52-0.52-0.233-0.52-0.52 0.233-0.52 0.52-0.52z"></path>
</svg>
