<!-- Generated by IcoMoon.io -->
<svg version="1.1" xmlns="http://www.w3.org/2000/svg" width="32" height="32" viewBox="0 0 32 32">
<title>dollar</title>
<path fill="#333" d="M27.52 12.349l-1.262-2.276-0.903 0.5 0.764 1.379c-1.565-0.393-3.341-0.685-5.201-0.871-0.242-2.424-0.663-4.708-1.255-6.565l1.279 0.597 0.437-0.935-2.222-1.036c-0.817-1.929-1.874-3.142-3.158-3.142-2.641 0-4.323 5.116-4.919 11.080-0.311 0.031-0.624 0.060-0.93 0.097l0.124 1.025c0.234-0.028 0.475-0.050 0.713-0.075-0.099 1.278-0.15 2.582-0.15 3.873 0 1.293 0.052 2.599 0.151 3.879-6.050-0.626-9.957-2.322-9.957-3.879 0-0.647 0.709-1.221 1.303-1.588l-0.542-0.878c-1.19 0.735-1.793 1.565-1.793 2.466 0 2.641 5.117 4.324 11.081 4.919 0.595 5.964 2.278 11.081 4.919 11.081 2.506 0 3.801-4.511 4.35-7.201l-1.011-0.206c-0.791 3.873-2.101 6.375-3.339 6.375-1.557 0-3.253-3.907-3.879-9.957 1.279 0.099 2.586 0.151 3.879 0.151l0.521-0.003-0.009-1.032-0.511 0.003c-1.397 0-2.726-0.055-3.975-0.154-0.1-1.249-0.154-2.578-0.154-3.975 0-1.395 0.055-2.722 0.154-3.969 1.289-0.104 2.618-0.16 3.975-0.16 1.397 0 2.726 0.055 3.975 0.154 0.1 1.249 0.154 2.578 0.154 3.975l-0.003 0.511 1.032 0.009 0.003-0.521c0-1.293-0.052-2.599-0.151-3.879 1.884 0.195 3.559 0.493 4.974 0.859l-1.505 1.048 0.59 0.847 2.191-1.526c2.351 0.767 3.707 1.734 3.707 2.651 0 1.238-2.503 2.548-6.375 3.338l0.206 1.011c2.69-0.549 7.201-1.843 7.201-4.349 0-1.561-1.788-2.787-4.48-3.651zM16 10.839c-1.322 0-2.618 0.054-3.879 0.15 0.626-6.050 2.322-9.957 3.879-9.957 0.739 0 1.509 0.88 2.181 2.45l-1.083 1.944 0.901 0.503 0.656-1.176c0.533 1.637 0.968 3.757 1.224 6.236-1.28-0.1-2.586-0.151-3.879-0.151z"></path>
<path fill="#333" d="M12.284 28.423c-0.046-0.046-0.103-0.088-0.165-0.114-0.098-0.041-0.201-0.052-0.299-0.026-0.036 0.005-0.067 0.015-0.098 0.026-0.031 0.015-0.062 0.031-0.088 0.046-0.031 0.021-0.057 0.041-0.077 0.067-0.052 0.047-0.088 0.103-0.114 0.165-0.026 0.067-0.041 0.134-0.041 0.202s0.015 0.134 0.041 0.196 0.062 0.118 0.114 0.165c0.098 0.098 0.227 0.155 0.361 0.155 0.139 0 0.268-0.057 0.366-0.155 0.046-0.046 0.088-0.103 0.114-0.165s0.036-0.129 0.036-0.196c0-0.068-0.011-0.135-0.036-0.202-0.026-0.061-0.068-0.118-0.114-0.165z"></path>
<path fill="#333" d="M6.183 25.161c-0.201 0.206-0.201 0.532 0 0.733 0.103 0.098 0.232 0.15 0.366 0.15 0.129 0 0.264-0.052 0.366-0.155 0.202-0.202 0.197-0.527-0.005-0.728-0.201-0.202-0.526-0.202-0.728 0z"></path>
<path fill="#f9ba48" d="M6.194 17.548c-2.562 0-4.645-2.084-4.645-4.645s2.084-4.645 4.645-4.645 4.645 2.084 4.645 4.645-2.084 4.645-4.645 4.645z"></path>
<path fill="#333" d="M4.867 23.51c-0.232 0.17-0.279 0.49-0.114 0.723 0.103 0.139 0.258 0.211 0.418 0.211 0.103 0 0.212-0.031 0.305-0.103 0.232-0.165 0.279-0.49 0.114-0.718-0.171-0.232-0.496-0.283-0.723-0.113z"></path>
<path fill="#333" d="M6.71 14.452h-1.032c-0.285 0-0.516-0.231-0.516-0.516h-1.032c0 0.854 0.695 1.548 1.548 1.548v0.516h1.032v-0.516c0.854 0 1.548-0.695 1.548-1.548s-0.695-1.548-1.548-1.548h-1.032c-0.285 0-0.516-0.231-0.516-0.516s0.231-0.516 0.516-0.516h1.032c0.285 0 0.516 0.231 0.516 0.516h1.032c0-0.854-0.695-1.548-1.548-1.548v-0.516h-1.032v0.516c-0.854 0-1.548 0.695-1.548 1.548s0.695 1.548 1.548 1.548h1.032c0.285 0 0.516 0.231 0.516 0.516s-0.231 0.516-0.516 0.516z"></path>
<path fill="#333" d="M10.199 27.53v-0.005c-0.258-0.124-0.568-0.026-0.697 0.232-0.129 0.252-0.026 0.563 0.232 0.692-0.005 0-0.005 0-0.005 0 0.077 0.036 0.155 0.056 0.232 0.056 0.191 0 0.372-0.103 0.465-0.284 0.13-0.253 0.026-0.567-0.227-0.691z"></path>
<path fill="#f9ba48" d="M20.645 25.29c-2.562 0-4.645-2.084-4.645-4.645s2.084-4.645 4.645-4.645 4.645 2.084 4.645 4.645-2.084 4.645-4.645 4.645z"></path>
<path fill="#333" d="M7.742 26.591c-0.17 0.227-0.119 0.552 0.114 0.718 0.093 0.067 0.196 0.098 0.305 0.098 0.161 0 0.32-0.072 0.419-0.212 0.165-0.232 0.114-0.557-0.119-0.722-0.233-0.166-0.553-0.115-0.718 0.118z"></path>
<path fill="#333" d="M3.825 21.672c-0.253 0.129-0.356 0.443-0.222 0.697 0.088 0.175 0.274 0.279 0.46 0.279 0.077 0 0.16-0.021 0.237-0.057 0.247-0.129 0.351-0.443 0.222-0.697-0.134-0.253-0.444-0.351-0.697-0.222z"></path>
<path fill="#333" d="M20.129 19.097h1.032c0.285 0 0.516 0.231 0.516 0.516h1.032c0-0.854-0.695-1.548-1.548-1.548v-0.516h-1.032v0.516c-0.854 0-1.548 0.695-1.548 1.548s0.695 1.548 1.548 1.548h1.032c0.285 0 0.516 0.231 0.516 0.516s-0.231 0.516-0.516 0.516h-1.032c-0.285 0-0.516-0.231-0.516-0.516h-1.032c0 0.854 0.695 1.548 1.548 1.548v0.516h1.032v-0.516c0.854 0 1.548-0.695 1.548-1.548s-0.695-1.548-1.548-1.548h-1.032c-0.285 0-0.516-0.231-0.516-0.516s0.231-0.516 0.516-0.516z"></path>
<path fill="#333" d="M3.721 20.372c0.026-0.062 0.036-0.124 0.036-0.196 0-0.067-0.011-0.134-0.036-0.196s-0.067-0.119-0.114-0.165c-0.191-0.196-0.537-0.196-0.728 0-0.052 0.046-0.088 0.103-0.114 0.165s-0.041 0.129-0.041 0.196c0 0.072 0.015 0.134 0.041 0.196 0.026 0.067 0.062 0.119 0.114 0.17 0.046 0.046 0.103 0.088 0.165 0.114s0.129 0.036 0.197 0.036c0.072 0 0.139-0.011 0.201-0.036s0.118-0.067 0.165-0.114c0.046-0.052 0.088-0.103 0.114-0.17z"></path>
<path fill="#333" d="M29.125 19.809c-0.145-0.145-0.376-0.191-0.563-0.114-0.067 0.026-0.124 0.062-0.17 0.114-0.046 0.046-0.083 0.103-0.108 0.165-0.031 0.061-0.041 0.129-0.041 0.196 0 0.072 0.011 0.139 0.036 0.201s0.067 0.119 0.114 0.165 0.103 0.088 0.17 0.114c0.062 0.026 0.129 0.036 0.196 0.036 0.134 0 0.269-0.052 0.366-0.15 0.046-0.046 0.083-0.103 0.108-0.165s0.041-0.129 0.041-0.201c0-0.067-0.015-0.135-0.041-0.196s-0.062-0.119-0.108-0.165z"></path>
<path fill="#333" d="M25.074 25.172c-0.206 0.202-0.206 0.532-0.006 0.733 0.103 0.103 0.232 0.155 0.367 0.155 0.129 0 0.263-0.052 0.361-0.15 0.206-0.202 0.206-0.527 0.006-0.733-0.201-0.202-0.526-0.202-0.728-0.006z"></path>
<path fill="#333" d="M26.405 23.628c-0.17 0.232-0.119 0.552 0.114 0.722 0.088 0.067 0.196 0.103 0.305 0.103 0.155 0 0.315-0.077 0.413-0.212 0.17-0.232 0.119-0.552-0.108-0.723s-0.552-0.118-0.723 0.109z"></path>
<path fill="#333" d="M28.175 21.672c-0.253-0.129-0.563-0.031-0.692 0.222h-0.005c-0.129 0.253-0.031 0.568 0.227 0.697 0.072 0.036 0.155 0.057 0.232 0.057 0.191 0 0.366-0.103 0.459-0.279 0.13-0.258 0.031-0.568-0.221-0.697z"></path>
<path fill="#333" d="M23.515 26.493c-0.232 0.165-0.284 0.485-0.118 0.717 0.098 0.14 0.258 0.217 0.418 0.217 0.103 0 0.212-0.031 0.299-0.098 0.232-0.165 0.284-0.485 0.119-0.718s-0.491-0.289-0.718-0.119z"></path>
<path fill="#333" d="M21.765 27.546c-0.253 0.129-0.356 0.439-0.232 0.692 0.093 0.181 0.274 0.284 0.465 0.284 0.077 0 0.155-0.015 0.232-0.052 0.253-0.129 0.356-0.439 0.227-0.692-0.129-0.258-0.438-0.361-0.691-0.232z"></path>
<path fill="#333" d="M20.387 28.439c-0.026-0.021-0.052-0.041-0.077-0.062-0.031-0.021-0.056-0.036-0.088-0.046-0.031-0.015-0.067-0.026-0.098-0.031-0.165-0.036-0.346 0.021-0.465 0.139-0.098 0.098-0.155 0.232-0.155 0.366 0 0.14 0.056 0.269 0.155 0.366 0.093 0.098 0.227 0.15 0.361 0.15 0.139 0 0.268-0.052 0.366-0.15s0.15-0.227 0.15-0.366c0-0.067-0.011-0.134-0.036-0.196s-0.068-0.119-0.114-0.17z"></path>
<path fill="#333" d="M22.379 4.707c0.14 0 0.269-0.052 0.366-0.15s0.15-0.227 0.15-0.366c0-0.135-0.052-0.269-0.15-0.361-0.19-0.196-0.542-0.196-0.733 0-0.093 0.093-0.15 0.227-0.15 0.361 0 0.139 0.057 0.268 0.15 0.366 0.099 0.098 0.228 0.15 0.366 0.15z"></path>
<path fill="#333" d="M23.809 5.724c0.093 0.072 0.201 0.108 0.31 0.108 0.155 0 0.31-0.072 0.413-0.201 0.17-0.227 0.129-0.552-0.098-0.728-0.227-0.17-0.552-0.129-0.723 0.098-0.175 0.227-0.129 0.552 0.098 0.728v-0.005h-0.001z"></path>
<path fill="#333" d="M26.988 8.81c0.103 0 0.206-0.031 0.294-0.093 0.232-0.165 0.29-0.485 0.129-0.717 0-0.005 0-0.005 0-0.005-0.165-0.232-0.49-0.29-0.722-0.124-0.232 0.165-0.29 0.485-0.124 0.722 0.098 0.14 0.258 0.217 0.423 0.217z"></path>
<path fill="#333" d="M25.667 7.21c0.129 0 0.258-0.046 0.361-0.145 0.201-0.196 0.212-0.526 0.011-0.727-0.197-0.206-0.522-0.212-0.728-0.015s-0.212 0.526-0.015 0.728c0.103 0.108 0.237 0.159 0.371 0.159z"></path>
<path fill="#333" d="M28.046 10.596c0.077 0 0.155-0.021 0.227-0.057 0.252-0.124 0.361-0.434 0.232-0.692-0.123-0.253-0.434-0.361-0.686-0.232-0.258 0.124-0.366 0.434-0.237 0.692 0.088 0.18 0.274 0.289 0.465 0.289z"></path>
<path fill="#333" d="M28.341 11.814c-0.026 0.062-0.041 0.129-0.041 0.196s0.015 0.135 0.041 0.196c0.026 0.062 0.062 0.119 0.108 0.165 0.052 0.052 0.108 0.088 0.17 0.114s0.129 0.041 0.196 0.041 0.134-0.015 0.196-0.041c0.062-0.026 0.118-0.062 0.17-0.114 0.098-0.093 0.15-0.222 0.15-0.361 0-0.067-0.011-0.134-0.041-0.196-0.026-0.067-0.062-0.124-0.108-0.17-0.196-0.191-0.542-0.191-0.733 0-0.046 0.046-0.083 0.103-0.108 0.17z"></path>
<path fill="#333" d="M5.29 8.134c0.062 0.026 0.129 0.041 0.196 0.041 0.139 0 0.268-0.057 0.366-0.155 0.046-0.046 0.088-0.103 0.114-0.165s0.036-0.129 0.036-0.196c0-0.072-0.011-0.134-0.036-0.201-0.026-0.062-0.067-0.119-0.114-0.165-0.145-0.145-0.372-0.191-0.563-0.114-0.062 0.026-0.119 0.067-0.17 0.114-0.046 0.046-0.083 0.103-0.108 0.165-0.026 0.067-0.041 0.134-0.041 0.201 0 0.134 0.057 0.263 0.15 0.361 0.052 0.052 0.108 0.088 0.17 0.114z"></path>
<path fill="#333" d="M6.844 6.71c0.124 0 0.253-0.046 0.351-0.14 0.206-0.196 0.217-0.521 0.021-0.733-0.191-0.206-0.516-0.217-0.728-0.021 0-0.005 0-0.005 0-0.005-0.206 0.196-0.217 0.521-0.026 0.733 0.103 0.109 0.243 0.166 0.382 0.166z"></path>
<path fill="#333" d="M10.116 4.449c0.077 0 0.155-0.015 0.227-0.052 0.258-0.123 0.361-0.434 0.237-0.692-0.124-0.253-0.434-0.361-0.686-0.237-0.005 0-0.005 0-0.005 0-0.253 0.129-0.361 0.434-0.237 0.692 0.093 0.186 0.273 0.29 0.465 0.29z"></path>
<path fill="#333" d="M8.397 5.455c0.098 0 0.202-0.026 0.29-0.088 0.237-0.165 0.294-0.485 0.134-0.717-0.16-0.237-0.485-0.294-0.717-0.134-0.237 0.16-0.294 0.485-0.135 0.717 0.103 0.145 0.263 0.222 0.428 0.222z"></path>
<path fill="#333" d="M11.974 3.71c0.134 0 0.263-0.052 0.361-0.15 0.099-0.098 0.155-0.227 0.155-0.366 0-0.134-0.057-0.268-0.155-0.366-0.19-0.191-0.537-0.191-0.727 0-0.098 0.098-0.15 0.232-0.15 0.366 0 0.14 0.052 0.269 0.15 0.366 0.098 0.099 0.227 0.15 0.366 0.15z"></path>
</svg>
