<!-- Generated by IcoMoon.io -->
<svg version="1.1" xmlns="http://www.w3.org/2000/svg" width="32" height="32" viewBox="0 0 32 32">
<title>files</title>
<path fill="#f9ba48" d="M5.161 25.29h6.194v4.645h-6.194v-4.645z"></path>
<path fill="#f9ba48" d="M23.742 25.29h6.194v4.645h-6.194v-4.645z"></path>
<path fill="#f9ba48" d="M5.161 4.645h6.194v4.645h-6.194v-4.645z"></path>
<path fill="#f9ba48" d="M23.742 4.645h6.194v4.645h-6.194v-4.645z"></path>
<path fill="#333" d="M10.323 20.645h-10.323v9.29c0 1.139 0.926 2.065 2.065 2.065h9.29c1.139 0 2.065-0.926 2.065-2.065v-7.226h-3.097v-2.065zM3.097 29.935c0 0.569-0.463 1.032-1.032 1.032s-1.032-0.463-1.032-1.032v-8.258h8.258v1.032h-6.194v7.226zM12.387 23.742v6.194c0 0.569-0.463 1.032-1.032 1.032h-7.503c0.177-0.304 0.277-0.657 0.277-1.032v-6.194h8.258z"></path>
<path fill="#333" d="M5.161 24.774h6.194v1.032h-6.194v-1.032z"></path>
<path fill="#333" d="M5.161 26.839h6.194v1.032h-6.194v-1.032z"></path>
<path fill="#333" d="M5.161 28.903h4.129v1.032h-4.129v-1.032z"></path>
<path fill="#333" d="M10.323 28.903h1.032v1.032h-1.032v-1.032z"></path>
<path fill="#333" d="M3.613 19.613v-5.745l0.746 0.497 0.573-0.859-1.835-1.223-1.835 1.223 0.573 0.859 0.746-0.497v5.745z"></path>
<path fill="#333" d="M29.419 19.613v-5.745l0.746 0.497 0.573-0.859-1.835-1.223-1.835 1.223 0.573 0.859 0.746-0.497v5.745z"></path>
<path fill="#333" d="M18.228 11.494l-2.486 2.321-2.486-2.321-0.705 0.755 2.435 2.272-3.911 3.651-0.262-0.786-0.979 0.326 0.597 1.794 1.794 0.597 0.326-0.979-0.724-0.242 3.916-3.655 3.916 3.655-0.724 0.242 0.326 0.979 1.794-0.597 0.597-1.794-0.979-0.326-0.262 0.786-3.911-3.651 2.435-2.272z"></path>
<path fill="#333" d="M2.065 11.355h9.29c1.139 0 2.065-0.926 2.065-2.065v-7.226h-3.097v-2.065h-10.323v9.29c0 1.139 0.926 2.065 2.065 2.065zM12.387 3.097v6.194c0 0.569-0.463 1.032-1.032 1.032h-7.503c0.177-0.304 0.277-0.657 0.277-1.032v-6.194h8.258zM1.032 1.032h8.258v1.032h-6.194v7.226c0 0.569-0.463 1.032-1.032 1.032s-1.032-0.463-1.032-1.032v-8.258z"></path>
<path fill="#333" d="M5.161 4.129h6.194v1.032h-6.194v-1.032z"></path>
<path fill="#333" d="M5.161 6.194h6.194v1.032h-6.194v-1.032z"></path>
<path fill="#333" d="M5.161 8.258h4.129v1.032h-4.129v-1.032z"></path>
<path fill="#333" d="M10.323 8.258h1.032v1.032h-1.032v-1.032z"></path>
<path fill="#333" d="M28.903 2.065v-2.065h-10.323v9.29c0 1.139 0.926 2.065 2.065 2.065h9.29c1.139 0 2.065-0.926 2.065-2.065v-7.226h-3.097zM21.677 9.29c0 0.569-0.463 1.032-1.032 1.032s-1.032-0.463-1.032-1.032v-8.258h8.258v1.032h-6.194v7.226zM30.968 9.29c0 0.569-0.463 1.032-1.032 1.032h-7.503c0.177-0.304 0.277-0.657 0.277-1.032v-6.194h8.258v6.194z"></path>
<path fill="#333" d="M23.742 4.129h6.194v1.032h-6.194v-1.032z"></path>
<path fill="#333" d="M23.742 6.194h6.194v1.032h-6.194v-1.032z"></path>
<path fill="#333" d="M23.742 8.258h4.129v1.032h-4.129v-1.032z"></path>
<path fill="#333" d="M28.903 8.258h1.032v1.032h-1.032v-1.032z"></path>
<path fill="#333" d="M28.903 20.645h-10.323v9.29c0 1.139 0.926 2.065 2.065 2.065h9.29c1.139 0 2.065-0.926 2.065-2.065v-7.226h-3.097v-2.065zM21.677 29.935c0 0.569-0.463 1.032-1.032 1.032s-1.032-0.463-1.032-1.032v-8.258h8.258v1.032h-6.194v7.226zM30.968 23.742v6.194c0 0.569-0.463 1.032-1.032 1.032h-7.503c0.177-0.304 0.277-0.657 0.277-1.032v-6.194h8.258z"></path>
<path fill="#333" d="M23.742 24.774h6.194v1.032h-6.194v-1.032z"></path>
<path fill="#333" d="M23.742 26.839h6.194v1.032h-6.194v-1.032z"></path>
<path fill="#333" d="M23.742 28.903h4.129v1.032h-4.129v-1.032z"></path>
<path fill="#333" d="M28.903 28.903h1.032v1.032h-1.032v-1.032z"></path>
</svg>
