<!-- Generated by IcoMoon.io -->
<svg version="1.1" xmlns="http://www.w3.org/2000/svg" width="32" height="32" viewBox="0 0 32 32">
<title>folder</title>
<path fill="#f9ba48" d="M12.387 17.032v9.806h12.387v-9.806h-12.387zM19.613 21.791v2.983h-2.065v-2.983c-0.315-0.283-0.516-0.69-0.516-1.146 0-0.855 0.693-1.548 1.548-1.548s1.548 0.693 1.548 1.548c0 0.457-0.201 0.863-0.516 1.146z"></path>
<path fill="#333" d="M22.71 24.258h2.065v1.032h-2.065v-1.032z"></path>
<path fill="#333" d="M12.387 24.258h2.065v1.032h-2.065v-1.032z"></path>
<path fill="#333" d="M12.903 17.032h1.032v-2.065c0-2.562 2.084-4.645 4.645-4.645s4.645 2.084 4.645 4.645v2.065h1.032v-2.065c0-3.13-2.547-5.677-5.677-5.677s-5.677 2.547-5.677 5.677v2.065z"></path>
<path fill="#333" d="M18.581 11.355c-1.992 0-3.613 1.621-3.613 3.613v2.065h1.032v-2.065c0-1.423 1.158-2.581 2.581-2.581s2.581 1.158 2.581 2.581v2.065h1.032v-2.065c0-1.992-1.621-3.613-3.613-3.613z"></path>
<path fill="#333" d="M18.581 18.581c-1.139 0-2.065 0.926-2.065 2.065 0 0.499 0.185 0.981 0.516 1.357v3.288h3.097v-3.288c0.331-0.376 0.516-0.859 0.516-1.357 0-1.139-0.926-2.065-2.065-2.065zM19.267 21.409l-0.17 0.154v2.696h-1.032v-2.696l-0.17-0.154c-0.223-0.201-0.346-0.472-0.346-0.763 0-0.569 0.463-1.032 1.032-1.032s1.032 0.463 1.032 1.032c0 0.291-0.123 0.563-0.346 0.763z"></path>
<path fill="#333" d="M22.71 18.581h2.065v1.032h-2.065v-1.032z"></path>
<path fill="#333" d="M12.387 18.581h2.065v1.032h-2.065v-1.032z"></path>
<path fill="#333" d="M26.839 7.226v-4.645h-26.839v23.742c0 1.708 1.389 3.097 3.097 3.097h25.806c1.708 0 3.097-1.389 3.097-3.097v-19.097h-5.161zM5.161 26.323c0 1.139-0.926 2.065-2.065 2.065s-2.065-0.926-2.065-2.065v-22.71h24.774v3.613h-11.552l-1.032-2.065h-8.061v21.161zM30.968 26.323c0 1.139-0.926 2.065-2.065 2.065h-23.5c0.491-0.548 0.79-1.272 0.79-2.065v-20.129h6.391l1.032 2.065h17.351v18.065z"></path>
</svg>
