<!-- Generated by IcoMoon.io -->
<svg version="1.1" xmlns="http://www.w3.org/2000/svg" width="32" height="32" viewBox="0 0 32 32">
<title>hand-bag</title>
<path fill="#f9ba48" d="M9.101 29.347c-0.878 0-1.592-0.714-1.592-1.592v-12.736h3.184v12.736c0 0.878-0.714 1.592-1.592 1.592z"></path>
<path fill="#f9ba48" d="M22.899 29.347c-0.878 0-1.592-0.714-1.592-1.592v-12.736h3.184v12.736c0 0.878-0.714 1.592-1.592 1.592z"></path>
<path fill="#333" d="M24.491 15.019v-0.195l0.353 0.044c0.072 0.009 0.143 0.013 0.213 0.013 0.847 0 1.595-0.63 1.718-1.488l0.203-1.419c0.129-0.91-0.475-1.764-1.377-1.945l-0.098-0.020-1.013-3.209v-6.641h-1.061v3.28l-1.086-3.44-1.011 0.319 2.098 6.643v2.845l-2.113 0.422-8.415-1.98 1.498-7.992-1.043-0.196-1.686 8.989 9.627 2.265 2.662-0.532 1.433 0.287c0.35 0.070 0.584 0.401 0.534 0.754l-0.203 1.419c-0.051 0.361-0.385 0.618-0.748 0.572l-3.102-0.387-11.55-0.797c-1.864-0.128-3.263-1.692-3.186-3.558l0.37-8.891-1.060-0.045-0.37 8.891c-0.027 0.652 0.087 1.274 0.309 1.841l-1.382 4.148h-0.149v13.926c0 1.392 1.132 2.524 2.524 2.524h2.782v0.531h1.061v-0.531h10.083v0.531h1.061v-0.531h2.252c1.392 0 2.524-1.132 2.524-2.524v-13.926h-2.653zM26.083 21.681c0 0.928-0.698 1.689-1.595 1.805-0.013-0.867-0.72-1.569-1.589-1.569-0.878 0-1.592 0.714-1.592 1.592h-10.613c0-0.878-0.714-1.592-1.592-1.592-0.87 0-1.577 0.702-1.589 1.568-0.897-0.116-1.595-0.877-1.595-1.804v-5.601h20.166v5.601zM23.429 23.509v1.061c0 0.293-0.238 0.531-0.531 0.531s-0.531-0.238-0.531-0.531v-1.061c0-0.293 0.238-0.531 0.531-0.531s0.531 0.238 0.531 0.531zM9.632 23.509v1.061c0 0.293-0.238 0.531-0.531 0.531s-0.531-0.238-0.531-0.531v-1.061c0-0.293 0.238-0.531 0.531-0.531s0.531 0.238 0.531 0.531zM21.772 14.484l1.658 0.207v0.327h-13.267v-1.339c0.030 0.003 0.058 0.008 0.089 0.011l11.52 0.793zM7.102 12.080c0.518 0.626 1.204 1.106 1.999 1.376v1.562h-2.979l0.98-2.938zM24.62 30.408h-17.239c-0.807 0-1.463-0.656-1.463-1.463v-5.029c0.441 0.361 0.991 0.593 1.592 0.642v0.012c0 0.878 0.714 1.592 1.592 1.592s1.592-0.714 1.592-1.592h10.613c0 0.878 0.714 1.592 1.592 1.592s1.592-0.714 1.592-1.592v-0.012c0.601-0.049 1.151-0.281 1.592-0.642v5.029c0 0.807-0.656 1.463-1.463 1.463z"></path>
<path fill="#333" d="M20.776 2.813c0 0.293-0.238 0.531-0.531 0.531s-0.531-0.238-0.531-0.531c0-0.293 0.238-0.531 0.531-0.531s0.531 0.238 0.531 0.531z"></path>
<path fill="#333" d="M21.307 6.528c0 0.293-0.238 0.531-0.531 0.531s-0.531-0.238-0.531-0.531c0-0.293 0.238-0.531 0.531-0.531s0.531 0.238 0.531 0.531z"></path>
</svg>
