<!-- Generated by IcoMoon.io -->
<svg version="1.1" xmlns="http://www.w3.org/2000/svg" width="32" height="32" viewBox="0 0 32 32">
<title>idea</title>
<path fill="#f9ba48" d="M32 10.839v-4.129h-2.396c-0.11-0.34-0.246-0.669-0.408-0.985l1.694-1.694-2.92-2.92-1.694 1.694c-0.316-0.162-0.646-0.298-0.985-0.407v-2.396h-4.129v2.396c-0.34 0.11-0.669 0.246-0.985 0.408l-1.694-1.694-2.92 2.92 1.694 1.694c-0.162 0.316-0.298 0.646-0.408 0.985h-2.396v4.129h2.396c0.11 0.34 0.246 0.669 0.408 0.985l-1.694 1.694 2.92 2.919 1.694-1.693c0.316 0.161 0.646 0.298 0.986 0.408v2.396h4.129v-2.396c0.34-0.11 0.669-0.247 0.986-0.408l1.694 1.693 2.92-2.919-1.694-1.694c0.162-0.316 0.298-0.646 0.408-0.985h2.396zM23.226 12.387c-0.374 0-0.734-0.057-1.073-0.162-0.595-0.968-1.41-1.783-2.378-2.378-0.105-0.339-0.162-0.699-0.162-1.073 0-1.995 1.618-3.613 3.613-3.613s3.613 1.618 3.613 3.613-1.618 3.613-3.613 3.613z"></path>
<path fill="#333" d="M27.355 8.774c0-2.277-1.852-4.129-4.129-4.129s-4.129 1.852-4.129 4.129c0 0.047 0.009 0.093 0.010 0.14-0.952-0.419-2.002-0.656-3.107-0.656-3.060 0-5.859 1.854-7.083 4.645h-6.337c-1.423 0-2.581 1.158-2.581 2.581s1.158 2.581 2.581 2.581h5.975c0.456 1.649 1.431 3.096 2.799 4.124v1.063c-0.873 0.126-1.548 0.873-1.548 1.78 0 0.647 0.345 1.212 0.858 1.531-0.213 0.297-0.342 0.658-0.342 1.050 0 0.647 0.345 1.212 0.858 1.531-0.213 0.297-0.342 0.658-0.342 1.050 0 0.996 0.81 1.806 1.806 1.806h6.71c0.996 0 1.806-0.81 1.806-1.806 0-0.392-0.129-0.753-0.342-1.050 0.513-0.319 0.858-0.884 0.858-1.531 0-0.392-0.129-0.753-0.342-1.050 0.513-0.319 0.858-0.884 0.858-1.531 0-0.907-0.675-1.654-1.548-1.78v-1.063c1.944-1.461 3.097-3.754 3.097-6.188 0-1.106-0.237-2.155-0.656-3.107 0.047 0.001 0.093 0.010 0.14 0.010 2.277 0 4.129-1.852 4.129-4.129zM8.506 13.935h4.913v1.032h-6.71v-1.032h1.797zM2.581 17.032c-0.854 0-1.548-0.695-1.548-1.548s0.695-1.548 1.548-1.548h0.516v3.097h-0.516zM4.129 17.032v-3.097h1.548v3.097h-1.548zM6.71 17.032v-1.032h6.71v1.032h-6.71zM19.871 28.387h-7.742c-0.427 0-0.774-0.347-0.774-0.774s0.347-0.774 0.774-0.774h7.742c0.427 0 0.774 0.347 0.774 0.774s-0.347 0.774-0.774 0.774zM19.355 30.968h-6.71c-0.427 0-0.774-0.347-0.774-0.774s0.347-0.774 0.774-0.774h6.71c0.427 0 0.774 0.347 0.774 0.774s-0.347 0.774-0.774 0.774zM21.161 25.032c0 0.427-0.347 0.774-0.774 0.774h-8.774c-0.427 0-0.774-0.347-0.774-0.774s0.347-0.774 0.774-0.774h8.774c0.427 0 0.774 0.347 0.774 0.774zM19.834 21.502l-0.221 0.154v1.57h-7.226v-1.57l-0.221-0.154c-1.207-0.843-2.093-2.047-2.541-3.437h4.827v-5.161h-4.396c1.145-2.188 3.446-3.613 5.945-3.613 1.298 0 2.507 0.377 3.535 1.018 0.87 0.542 1.614 1.286 2.156 2.156 0.641 1.028 1.018 2.237 1.018 3.535 0 2.188-1.075 4.245-2.876 5.502zM20.219 9.517c-0.059-0.242-0.090-0.491-0.090-0.743 0-1.708 1.389-3.097 3.097-3.097s3.097 1.389 3.097 3.097-1.389 3.097-3.097 3.097c-0.251 0-0.501-0.030-0.743-0.090-0.589-0.903-1.362-1.675-2.264-2.264z"></path>
</svg>
