<!-- Generated by IcoMoon.io -->
<svg version="1.1" xmlns="http://www.w3.org/2000/svg" width="32" height="32" viewBox="0 0 32 32">
<title>idea-1</title>
<path fill="#333" d="M27.963 22.948c-0.005-0.056-0.015-0.11-0.022-0.165-0.011-0.081-0.021-0.161-0.037-0.241-0.014-0.073-0.032-0.145-0.049-0.218-0.014-0.056-0.027-0.112-0.043-0.168-0.025-0.088-0.054-0.173-0.083-0.258-0.007-0.021-0.012-0.042-0.020-0.063 0.843-0.83 1.319-1.959 1.319-3.154 0-1.981-1.322-3.712-3.196-4.253-0.422-2.757-2.839-4.865-5.662-4.865-0.191 0-0.379 0.010-0.565 0.028l0.103 1.037c0.152-0.015 0.306-0.023 0.462-0.023 2.414 0 4.464 1.883 4.669 4.288l0.033 0.391 0.385 0.076c1.581 0.311 2.729 1.707 2.729 3.321 0 0.803-0.286 1.565-0.791 2.169-0.801-1.152-2.132-1.909-3.637-1.909v1.042c1.35 0 2.515 0.796 3.059 1.942 0.051 0.108 0.096 0.218 0.135 0.328 0.003 0.009 0.007 0.018 0.010 0.027 0.035 0.102 0.064 0.205 0.089 0.308 0.004 0.018 0.010 0.036 0.014 0.055 0.021 0.096 0.036 0.194 0.049 0.291 0.003 0.024 0.008 0.047 0.011 0.072 0.012 0.12 0.020 0.241 0.020 0.363 0 1.867-1.519 3.387-3.387 3.387-0.759 0-1.478-0.249-2.081-0.719l-0.214-0.167c-0.697-0.638-1.104-1.546-1.104-2.502h-1.042c0 1.199 0.495 2.339 1.342 3.166-0.64 0.797-1.596 1.262-2.633 1.262-1.294 0-2.456-0.723-3.033-1.888l-0.321-0.648-0.513 0.51c-0.639 0.634-1.486 0.983-2.386 0.983-0.412 0-0.811-0.082-1.19-0.226 1.188-0.795 1.972-2.148 1.972-3.682 0-0.111-0.015-0.219-0.022-0.328 0.829-0.144 1.604-0.519 2.233-1.096l-0.704-0.769c-0.486 0.445-1.084 0.733-1.725 0.84-0.349-1.088-1.103-2.018-2.149-2.569l-0.486 0.922c1.118 0.589 1.812 1.738 1.812 3 0 1.462-0.933 2.707-2.234 3.18-0.183 0.066-0.369 0.116-0.556 0.151-0.012 0.002-0.025 0.004-0.038 0.006-0.186 0.032-0.373 0.050-0.559 0.050-1.867 0-3.387-1.519-3.387-3.387 0-0.501 0.111-0.988 0.33-1.45l0.143-0.3-0.213-0.256c-0.504-0.607-0.781-1.375-0.781-2.163 0-1.608 1.143-3.004 2.717-3.32l0.4-0.080 0.019-0.406c0.084-1.81 1.568-3.228 3.378-3.228 0.407 0 0.812 0.076 1.204 0.225l0.398 0.151 0.228-0.359c0.174-0.274 0.385-0.522 0.627-0.736l-0.689-0.782c-0.214 0.189-0.41 0.398-0.583 0.623-0.389-0.109-0.786-0.164-1.185-0.164-2.235 0-4.091 1.653-4.384 3.829-1.859 0.55-3.172 2.277-3.172 4.247 0 0.922 0.29 1.823 0.823 2.57-0.201 0.512-0.302 1.048-0.302 1.598 0 2.442 1.987 4.429 4.429 4.429 0.197 0 0.391-0.018 0.582-0.043 0.036-0.005 0.072-0.011 0.108-0.017 0.193-0.030 0.382-0.070 0.567-0.125 0.716 0.463 1.537 0.706 2.391 0.706 0.955 0 1.865-0.301 2.62-0.858 0.821 1.186 2.162 1.9 3.633 1.9 1.366 0 2.625-0.616 3.461-1.671 0.685 0.413 1.46 0.629 2.27 0.629 2.442 0 4.429-1.987 4.429-4.429 0-0.142-0.008-0.282-0.021-0.423z"></path>
<path fill="#333" d="M15.479 0.184h1.042v2.084h-1.042v-2.084z"></path>
<path fill="#f9ba48" d="M18.605 13.732h-5.211v-1.837c-1.293-0.867-2.084-2.332-2.084-3.895 0-2.586 2.104-4.689 4.69-4.689s4.689 2.103 4.689 4.689c0 1.563-0.791 3.028-2.084 3.895v1.837z"></path>
<path fill="#333" d="M13.586 2.776l-0.902 0.521-1.042-1.805 0.902-0.521 1.042 1.805z"></path>
<path fill="#333" d="M11.297 4.681l-0.521 0.902-1.805-1.042 0.521-0.902 1.805 1.042z"></path>
<path fill="#333" d="M13.655 12.69c-0.719 0-1.303 0.584-1.303 1.303 0 0.464 0.245 0.868 0.61 1.099-0.055 0.144-0.089 0.3-0.089 0.464 0 0.719 0.584 1.303 1.303 1.303h3.647c0.719 0 1.303-0.584 1.303-1.303 0-0.164-0.034-0.319-0.089-0.464 0.365-0.231 0.61-0.636 0.61-1.099 0-0.719-0.584-1.303-1.303-1.303h-1.824v-3.222c0.605-0.216 1.042-0.789 1.042-1.467 0-0.862-0.701-1.563-1.563-1.563s-1.563 0.701-1.563 1.563c0 0.678 0.437 1.252 1.042 1.467v3.222h-1.824zM16 7.479c0.288 0 0.521 0.233 0.521 0.521s-0.233 0.521-0.521 0.521-0.521-0.233-0.521-0.521 0.233-0.521 0.521-0.521zM17.824 15.816h-3.647c-0.143 0-0.261-0.117-0.261-0.261s0.117-0.261 0.261-0.261h3.647c0.143 0 0.261 0.117 0.261 0.261s-0.117 0.261-0.261 0.261zM18.605 13.992c0 0.143-0.117 0.261-0.261 0.261h-4.689c-0.143 0-0.261-0.117-0.261-0.261s0.117-0.261 0.261-0.261h4.689c0.143 0 0.261 0.117 0.261 0.261z"></path>
<path fill="#333" d="M8.184 7.479h2.084v1.042h-2.084v-1.042z"></path>
<path fill="#333" d="M21.732 7.479h2.084v1.042h-2.084v-1.042z"></path>
<path fill="#333" d="M23.030 4.543l-1.805 1.042-0.521-0.903 1.805-1.042 0.521 0.903z"></path>
<path fill="#333" d="M20.359 1.494l-1.042 1.805-0.903-0.521 1.042-1.805 0.903 0.521z"></path>
<path fill="#333" d="M1.411 28.321h1.347l-2.758 2.758 0.737 0.737 2.758-2.758v1.347h1.042v-3.126h-3.126z"></path>
<path fill="#333" d="M30.59 28.321v-1.042h-3.126v3.126h1.042v-1.347l2.758 2.758 0.737-0.737-2.758-2.758z"></path>
<path fill="#333" d="M1.411 12.69v1.042h3.126v-3.126h-1.042v1.347l-2.758-2.758-0.737 0.737 2.758 2.758z"></path>
<path fill="#333" d="M30.59 12.69h-1.347l2.758-2.758-0.737-0.737-2.758 2.758v-1.347h-1.042v3.126h3.126z"></path>
</svg>
