<!-- Generated by IcoMoon.io -->
<svg version="1.1" xmlns="http://www.w3.org/2000/svg" width="32" height="32" viewBox="0 0 32 32">
<title>idea-3</title>
<path fill="#f9ba48" d="M18.065 25.806h-4.129v-1.809c-0.746-0.192-1.459-0.488-2.128-0.885l-1.282 1.281-2.92-2.92 1.281-1.282c-0.396-0.669-0.693-1.382-0.885-2.128h-1.809v-4.129h1.809c0.192-0.746 0.488-1.459 0.885-2.128l-1.281-1.282 2.92-2.92 1.282 1.281c0.669-0.396 1.382-0.693 2.128-0.885v-1.809h4.129v1.809c0.746 0.192 1.459 0.488 2.128 0.885l1.282-1.281 2.92 2.92-1.281 1.282c0.396 0.669 0.693 1.382 0.885 2.128h1.809v4.129h-1.809c-0.192 0.746-0.488 1.459-0.885 2.128l1.281 1.282-2.92 2.92-1.282-1.281c-0.669 0.396-1.382 0.693-2.128 0.885v1.809z"></path>
<path fill="#333" d="M13.419 18.188v0.392h-0.516v1.032h0.516v1.548h5.161v-1.548h0.516v-1.032h-0.516v-0.392c0.974-0.782 1.548-1.966 1.548-3.221 0-2.277-1.852-4.129-4.129-4.129s-4.129 1.852-4.129 4.129c0 1.255 0.574 2.439 1.548 3.221zM17.548 20.129h-3.097v-0.516h3.097v0.516zM15.484 14.968c0-0.285 0.231-0.516 0.516-0.516s0.516 0.231 0.516 0.516-0.231 0.516-0.516 0.516-0.516-0.231-0.516-0.516zM16 11.871c1.708 0 3.097 1.389 3.097 3.097 0 1.009-0.497 1.959-1.327 2.54l-0.221 0.154v0.919h-1.032v-2.159c0.599-0.214 1.032-0.781 1.032-1.453 0-0.854-0.695-1.548-1.548-1.548s-1.548 0.695-1.548 1.548c0 0.672 0.433 1.24 1.032 1.453v2.159h-1.032v-0.919l-0.221-0.154c-0.831-0.581-1.327-1.531-1.327-2.54 0-1.708 1.389-3.097 3.097-3.097z"></path>
<path fill="#333" d="M19.613 0h-10.686c-1.229 0-2.399 0.531-3.209 1.456-0.755 0.863-1.126 1.969-1.043 3.113 0.073 1.010 0.491 1.939 1.187 2.656h-1.216v1.032h2.984l0.613-2.456-1.001-0.25-0.314 1.254-0.104-0.090c-0.66-0.566-1.058-1.354-1.12-2.221s0.219-1.705 0.791-2.36c0.614-0.701 1.5-1.103 2.433-1.103h10.686v-1.032z"></path>
<path fill="#333" d="M5.553 24.759l1.254 0.314-0.090 0.104c-0.566 0.66-1.354 1.058-2.221 1.12-0.868 0.059-1.705-0.219-2.36-0.791-0.701-0.614-1.103-1.5-1.103-2.433v-10.686h-1.032v10.686c0 1.229 0.531 2.399 1.456 3.209 0.785 0.686 1.769 1.055 2.801 1.055 0.104 0 0.208-0.004 0.313-0.011 1.010-0.073 1.939-0.491 2.656-1.187v1.215h1.032v-2.984l-2.456-0.613-0.249 1.001z"></path>
<path fill="#333" d="M23.757 26.198l1.001 0.25 0.314-1.254 0.104 0.090c0.66 0.566 1.058 1.354 1.12 2.221s-0.219 1.705-0.791 2.36c-0.614 0.701-1.5 1.103-2.432 1.103h-10.686v1.032h10.686c1.229 0 2.399-0.531 3.209-1.456 0.755-0.863 1.126-1.969 1.043-3.113-0.073-1.010-0.491-1.939-1.187-2.656h1.216v-1.032h-2.984l-0.614 2.455z"></path>
<path fill="#333" d="M30.544 5.717c-0.863-0.755-1.967-1.126-3.113-1.043-1.010 0.073-1.939 0.491-2.656 1.187v-1.216h-1.032v2.984l2.456 0.613 0.25-1.001-1.254-0.314 0.090-0.104c0.566-0.66 1.354-1.058 2.221-1.12 0.866-0.060 1.705 0.219 2.36 0.791 0.701 0.614 1.103 1.5 1.103 2.433v10.686h1.032v-10.686c0-1.229-0.531-2.399-1.456-3.209z"></path>
</svg>
