<!-- Generated by IcoMoon.io -->
<svg version="1.1" xmlns="http://www.w3.org/2000/svg" width="32" height="32" viewBox="0 0 32 32">
<title>idea-2</title>
<path fill="#f9ba48" d="M15.484 20.645h-3.613v-2.117c-0.171-0.066-0.343-0.137-0.514-0.215l-1.498 1.498-4.379-4.379 1.498-1.498c-0.078-0.171-0.15-0.343-0.215-0.514h-2.117v-6.194h2.117c0.066-0.171 0.137-0.343 0.215-0.514l-1.498-1.498 4.379-4.379 1.498 1.498c0.171-0.078 0.343-0.15 0.514-0.215v-2.117h3.613v6.194h-0.516c-2.277 0-4.129 1.852-4.129 4.129s1.852 4.129 4.129 4.129h0.516v6.194z"></path>
<path fill="#333" d="M27.355 9.806c0-1.034-0.447-2.017-1.215-2.699 0.122-0.378 0.183-0.771 0.183-1.172 0-2.098-1.678-3.812-3.763-3.869-0.799-1.282-2.197-2.066-3.721-2.066-0.955 0-1.865 0.306-2.633 0.883l0.621 0.825c0.587-0.442 1.284-0.676 2.012-0.676 1.249 0 2.387 0.689 2.97 1.798l0.154 0.294 0.393-0.023c0.031-0.002 0.063-0.004 0.095-0.004 1.565 0 2.839 1.274 2.839 2.839 0 0.2-0.021 0.396-0.062 0.589-0.463-0.211-0.964-0.331-1.486-0.331-1.992 0-3.613 1.621-3.613 3.613h1.032c0-1.423 1.158-2.581 2.581-2.581 0.552 0 1.074 0.175 1.517 0.498 0.666 0.487 1.064 1.261 1.064 2.083 0 0.67-0.257 1.305-0.724 1.789l-0.238 0.247 0.135 0.315c0.206 0.482 0.311 0.994 0.311 1.521 0 1.477-0.835 2.776-2.102 3.427 0.025-0.195 0.037-0.391 0.037-0.588 0-2.562-2.084-4.645-4.645-4.645v1.032c1.992 0 3.613 1.621 3.613 3.613 0 0.428-0.081 0.85-0.226 1.247-0.522 1.415-1.882 2.365-3.387 2.365-0.828 0-1.609-0.275-2.258-0.795l-0.646 0.806c0.833 0.668 1.838 1.022 2.904 1.022 1.697 0 3.241-0.946 4.051-2.403l0.014 0.008c0.062-0.112 0.111-0.23 0.164-0.346 0.008-0.018 0.020-0.034 0.027-0.052 2.066-0.62 3.486-2.512 3.486-4.69 0-0.556-0.092-1.099-0.274-1.619 0.512-0.639 0.79-1.427 0.79-2.252z"></path>
<path fill="#333" d="M21.677 25.032c0-0.996-0.81-1.806-1.806-1.806h-8.774c-0.996 0-1.806 0.81-1.806 1.806 0 0.647 0.345 1.212 0.858 1.531-0.213 0.297-0.342 0.658-0.342 1.050 0 0.647 0.345 1.212 0.858 1.531-0.213 0.297-0.342 0.658-0.342 1.050 0 0.996 0.81 1.806 1.806 1.806h6.71c0.996 0 1.806-0.81 1.806-1.806 0-0.392-0.129-0.753-0.342-1.050 0.513-0.319 0.858-0.884 0.858-1.531 0-0.392-0.129-0.753-0.342-1.050 0.513-0.319 0.858-0.884 0.858-1.531zM11.097 24.258h8.774c0.427 0 0.774 0.347 0.774 0.774s-0.347 0.774-0.774 0.774h-8.774c-0.427 0-0.774-0.347-0.774-0.774s0.347-0.774 0.774-0.774zM19.355 28.387h-7.742c-0.427 0-0.774-0.347-0.774-0.774s0.347-0.774 0.774-0.774h7.742c0.427 0 0.774 0.347 0.774 0.774s-0.347 0.774-0.774 0.774zM18.839 30.968h-6.71c-0.427 0-0.774-0.347-0.774-0.774s0.347-0.774 0.774-0.774h6.71c0.427 0 0.774 0.347 0.774 0.774s-0.347 0.774-0.774 0.774z"></path>
</svg>
