<!-- Generated by IcoMoon.io -->
<svg version="1.1" xmlns="http://www.w3.org/2000/svg" width="32" height="32" viewBox="0 0 32 32">
<title>mailbox</title>
<path fill="#333" d="M32 7.742c0-2.562-2.084-4.645-4.645-4.645h-13.935c-1.653 0-3.194 0.89-4.023 2.322l0.893 0.517c0.646-1.114 1.845-1.807 3.13-1.807 1.992 0 3.613 1.621 3.613 3.613v8.774h-7.226v-1.548h-1.032v2.581h9.806v11.355h4.129v-11.355h9.29v-9.806zM21.677 27.871h-2.065v-10.323h2.065v10.323zM30.968 16.516h-12.903v-8.774c0-1.459-0.677-2.761-1.732-3.613h11.022c1.992 0 3.613 1.621 3.613 3.613v8.774z"></path>
<path fill="#f9ba48" d="M0 5.161h15.484v10.323h-15.484v-10.323z"></path>
<path fill="#333" d="M9.288 10.018l4.282 4.282 0.73-0.73-4.090-4.090 3.986-2.325-0.52-0.892-5.933 3.462-5.933-3.462-0.52 0.892 3.986 2.325-4.090 4.090 0.73 0.73 4.282-4.282 1.546 0.902z"></path>
</svg>
