<!-- Generated by IcoMoon.io -->
<svg version="1.1" xmlns="http://www.w3.org/2000/svg" width="32" height="32" viewBox="0 0 32 32">
<title>mail</title>
<path fill="#f9ba48" d="M16.258 23.226l-9.29-6.71v-16.516h21.677v16.516l-9.29 6.71-1.548-1.032z"></path>
<path fill="#333" d="M13.618 10.257l-0.92 0.921 2.189 2.189 0.921-0.92c0.147 0.070 0.297 0.132 0.451 0.186v1.302h3.097v-1.302c0.154-0.054 0.304-0.117 0.451-0.186l0.921 0.92 2.189-2.189-0.92-0.921c0.070-0.147 0.132-0.297 0.186-0.451h1.302v-3.097h-1.302c-0.054-0.154-0.117-0.304-0.186-0.451l0.92-0.921-2.189-2.189-0.921 0.92c-0.147-0.071-0.297-0.133-0.451-0.187v-1.302h-3.097v1.302c-0.154 0.054-0.304 0.117-0.451 0.186l-0.921-0.92-2.189 2.189 0.92 0.921c-0.070 0.147-0.132 0.297-0.186 0.451h-1.302v3.097h1.302c0.055 0.154 0.117 0.305 0.187 0.451zM13.161 7.742h1.051l0.1-0.387c0.085-0.327 0.214-0.639 0.385-0.929l0.203-0.345-0.743-0.743 0.73-0.73 0.743 0.743 0.345-0.203c0.289-0.171 0.601-0.3 0.929-0.385l0.387-0.1v-1.051h1.032v1.051l0.387 0.1c0.327 0.085 0.639 0.214 0.929 0.385l0.345 0.203 0.743-0.743 0.73 0.73-0.743 0.743 0.203 0.345c0.171 0.289 0.3 0.601 0.385 0.929l0.1 0.387h1.051v1.032h-1.051l-0.1 0.387c-0.085 0.327-0.214 0.639-0.385 0.929l-0.203 0.345 0.743 0.743-0.73 0.73-0.743-0.743-0.345 0.203c-0.289 0.171-0.601 0.3-0.929 0.385l-0.387 0.1v1.051h-1.032v-1.051l-0.387-0.1c-0.327-0.085-0.639-0.214-0.929-0.385l-0.345-0.203-0.743 0.743-0.73-0.73 0.743-0.743-0.203-0.345c-0.171-0.289-0.3-0.601-0.385-0.929l-0.1-0.387h-1.051v-1.032z"></path>
<path fill="#333" d="M17.806 10.323c1.139 0 2.065-0.926 2.065-2.065s-0.926-2.065-2.065-2.065-2.065 0.926-2.065 2.065 0.926 2.065 2.065 2.065zM17.806 7.226c0.569 0 1.032 0.463 1.032 1.032s-0.463 1.032-1.032 1.032-1.032-0.463-1.032-1.032 0.463-1.032 1.032-1.032z"></path>
<path fill="#333" d="M0.258 4.645h10.839v1.032h-10.839v-1.032z"></path>
<path fill="#333" d="M1.29 6.71h9.806v1.032h-9.806v-1.032z"></path>
<path fill="#333" d="M2.323 8.774h8.774v1.032h-8.774v-1.032z"></path>
<path fill="#333" d="M28.645 11.602v1.26l1.709 1.196-11.016 8.474-1.531-1.072-1.531 1.072-11.016-8.474 1.709-1.196v-0.991h4.129v-1.032h-7.742v1.032h3.229l-2.713 1.899v18.23h27.871v-18.23l-3.097-2.168zM4.903 15.087l10.486 8.066-10.486 7.34v-15.405zM6.024 30.968l11.782-8.247 11.782 8.247h-23.564zM30.71 30.492l-10.486-7.34 10.486-8.066v15.405z"></path>
</svg>
