<!-- Generated by IcoMoon.io -->
<svg version="1.1" xmlns="http://www.w3.org/2000/svg" width="32" height="32" viewBox="0 0 32 32">
<title>medal</title>
<path fill="#f9ba48" d="M22.698 22.183c0 3.699-2.999 6.698-6.698 6.698s-6.698-2.999-6.698-6.698c0-3.699 2.999-6.698 6.698-6.698s6.698 2.999 6.698 6.698z"></path>
<path fill="#333" d="M32 11.523l-1.642-11.495h-28.715l-1.643 11.495 6.672 7.698c-0.297 0.935-0.461 1.929-0.461 2.961 0 5.398 4.391 9.789 9.789 9.789s9.789-4.391 9.789-9.789c0-1.032-0.163-2.027-0.461-2.962l6.672-7.697zM24.903 18.137c-0.251-0.55-0.548-1.073-0.892-1.563l6.589-7.565 0.313 2.194-6.009 6.934zM8.639 15.751l-7.046-8.090 0.29-2.033 7.865 9.030c-0.4 0.333-0.767 0.702-1.109 1.093zM10.576 14.040l-8.501-9.76 0.364-2.549 9.908 11.376c-0.624 0.252-1.219 0.563-1.772 0.933zM20.253 10.848h-8.506l-1.795-2.061h12.096l-1.794 2.061zM22.945 7.757h-13.89l-2.244-2.576h18.378l-2.244 2.576zM26.086 4.15h-20.173l-2.692-3.091h25.557l-2.692 3.091zM13.406 12.753l-0.762-0.875h6.711l-0.762 0.875c-0.827-0.228-1.694-0.36-2.593-0.36s-1.766 0.132-2.594 0.36zM29.56 1.731l0.364 2.549-8.501 9.76c-0.553-0.37-1.147-0.681-1.772-0.933l9.909-11.376zM30.117 5.628l0.291 2.033-7.046 8.090c-0.342-0.392-0.709-0.76-1.109-1.093l7.865-9.030zM1.087 11.203l0.313-2.194 6.589 7.565c-0.344 0.49-0.641 1.013-0.892 1.563l-6.009-6.934zM16 30.941c-4.83 0-8.759-3.929-8.759-8.759s3.929-8.759 8.759-8.759 8.759 3.929 8.759 8.759-3.929 8.759-8.759 8.759z"></path>
<path fill="#333" d="M17.687 19.801l-1.687-3.419-1.687 3.419-3.774 0.548 2.731 2.661-0.645 3.758 3.375-1.774 3.375 1.774-0.645-3.758 2.731-2.661-3.774-0.548zM18.007 24.884l-2.007-1.055-2.007 1.055 0.383-2.233-1.623-1.582 2.243-0.326 1.003-2.033 1.003 2.033 2.243 0.326-1.623 1.582 0.383 2.233z"></path>
</svg>
