<!-- Generated by IcoMoon.io -->
<svg version="1.1" xmlns="http://www.w3.org/2000/svg" width="32" height="32" viewBox="0 0 32 32">
<title>office</title>
<path fill="#333" d="M21.677 0.258v10.323h10.323v-10.323h-10.323zM28.387 1.29h2.581v3.413l-1.108-0.37-0.86 0.574-3.181-1.061-3.109 0.888v-3.445h5.677zM22.71 9.548v-3.739l3.085-0.882 2.116 0.705-1.358 0.906 0.572 0.859 2.887-1.925 0.956 0.319v3.757h-8.258z"></path>
<path fill="#333" d="M26.839 2.839c0 0.854 0.695 1.548 1.548 1.548s1.548-0.695 1.548-1.548-0.695-1.548-1.548-1.548-1.548 0.695-1.548 1.548zM28.387 2.323c0.285 0 0.516 0.231 0.516 0.516s-0.231 0.516-0.516 0.516-0.516-0.231-0.516-0.516 0.231-0.516 0.516-0.516z"></path>
<path fill="#333" d="M30.452 22.452h0.516v-3.097h-0.516v-2.065h-1.032v-2.065h-8.774v3.097h1.032v2.065h0.516v1.032h-0.516v2.065h-9.29v-1.548h5.161c0.854 0 1.548-0.695 1.548-1.548v-1.548h-19.097v1.548c0 0.854 0.695 1.548 1.548 1.548h5.161v1.548h-6.71v3.097h1.548v5.161h1.032v-5.161h1.032v5.161h1.032v-5.161h22.71v5.161h1.032v-5.161h1.032v5.161h1.032v-5.161h1.548v-3.097h-1.548v-1.032zM21.677 16.258h6.71v1.032h-6.71v-1.032zM29.419 18.323v1.032h-6.71v-1.032h6.71zM23.226 20.387h6.71v1.032h-6.71v-1.032zM22.71 22.452h6.71v1.032h-6.71v-1.032zM1.548 20.903c-0.285 0-0.516-0.231-0.516-0.516v-0.516h17.032v0.516c0 0.285-0.231 0.516-0.516 0.516h-16zM7.742 21.935h3.613v1.548h-3.613v-1.548zM30.968 24.516v1.032h-29.935v-1.032h29.935z"></path>
<path fill="#333" d="M5.161 8.516c2.277 0 4.129-1.852 4.129-4.129s-1.852-4.129-4.129-4.129-4.129 1.852-4.129 4.129 1.852 4.129 4.129 4.129zM5.161 1.29c1.708 0 3.097 1.389 3.097 3.097s-1.389 3.097-3.097 3.097-3.097-1.389-3.097-3.097 1.389-3.097 3.097-3.097z"></path>
<path fill="#333" d="M6.996 4.99l-1.319-0.879v-1.788h-1.032v2.341l1.778 1.186z"></path>
<path fill="#f9ba48" d="M19.097 19.871h-19.097v-9.29c0-0.854 0.695-1.548 1.548-1.548h16c0.854 0 1.548 0.695 1.548 1.548v9.29z"></path>
</svg>
