<!-- Generated by IcoMoon.io -->
<svg version="1.1" xmlns="http://www.w3.org/2000/svg" width="32" height="32" viewBox="0 0 32 32">
<title>paper-plane</title>
<path fill="#333" d="M7.027 26.263l20.846-8.044 4.126-1.245-16.845-4.108c-0.020-1.106-0.922-2-2.032-2h-0.531v-2.567h3.594c0.849 0 1.541-0.691 1.541-1.54s-0.691-1.54-1.541-1.54h-6.162c-1.416 0-2.567 1.152-2.567 2.567v3.594h-5.697l0.562 6.162v1.442l-2.321 5.804 3.349-0.239v2.329l3.679-0.613zM6.806 25.258l-2.431 0.405v-1.19l3.631-0.259 6.862-2.071-8.062 3.115zM12.116 16.845l-1.579 0.031v-2.93h1.54v2.567c0 0.114 0.014 0.224 0.038 0.331zM10.537 17.903l0.999-0.020-0.999 0.079v-0.059zM12.697 17.793l-0.001-0.053c0.021 0.015 0.037 0.034 0.059 0.048l-0.058 0.005zM15.159 16.514v-2.59l10.859 2.649-10.887 0.214c0.016-0.089 0.028-0.179 0.028-0.272zM10.024 6.244h6.162c0.283 0 0.514 0.23 0.514 0.513s-0.23 0.513-0.514 0.513h-6.162v1.027h1.54v3.594h1.558c0.556 0 1.009 0.453 1.009 1.009v3.612c0 0.283-0.23 0.514-0.514 0.514s-0.514-0.23-0.514-0.514v-3.594h-3.594v5.123l-1.027 0.081v-10.339c0-0.849 0.691-1.54 1.54-1.54zM3.347 18.526l-0.001-0.482 4.109-0.081v0.24l-4.109 0.322zM7.456 12.406v4.531l-4.153 0.082-0.42-4.612h4.573zM3.193 19.568l22.521-1.766-17.838 5.393-6.314 0.451 1.631-4.078z"></path>
<path fill="#333" d="M12.591 2.649c0-1.416-1.152-2.567-2.567-2.567s-2.567 1.152-2.567 2.567 1.152 2.567 2.567 2.567 2.567-1.152 2.567-2.567zM10.024 4.19c-0.849 0-1.54-0.691-1.54-1.54s0.691-1.54 1.54-1.54 1.54 0.691 1.54 1.54-0.691 1.54-1.54 1.54z"></path>
<path fill="#333" d="M21.834 23.189h9.756v1.027h-9.756v-1.027z"></path>
<path fill="#333" d="M19.267 23.189h1.541v1.027h-1.541v-1.027z"></path>
<path fill="#333" d="M16.186 25.756h13.351v1.027h-13.351v-1.027z"></path>
<path fill="#333" d="M13.618 25.756h1.54v1.027h-1.54v-1.027z"></path>
<path fill="#333" d="M14.132 28.324h13.351v1.027h-13.351v-1.027z"></path>
<path fill="#333" d="M7.97 28.324h5.135v1.027h-5.135v-1.027z"></path>
<path fill="#333" d="M8.483 30.891h16.945v1.027h-16.945v-1.027z"></path>
<path fill="#333" d="M5.916 30.891h1.54v1.027h-1.54v-1.027z"></path>
<path fill="#f9ba48" d="M18.24 22.162h12.324v1.027h-12.324v-1.027z"></path>
<path fill="#f9ba48" d="M12.591 24.729h15.918v1.027h-15.918v-1.027z"></path>
<path fill="#f9ba48" d="M6.943 27.297h19.513v1.027h-19.513v-1.027z"></path>
<path fill="#f9ba48" d="M4.889 29.864h19.513v1.027h-19.513v-1.027z"></path>
</svg>
