<!-- Generated by IcoMoon.io -->
<svg version="1.1" xmlns="http://www.w3.org/2000/svg" width="32" height="32" viewBox="0 0 32 32">
<title>profile</title>
<path fill="#f9ba48" d="M4.129 9.806h22.194v20.129h-22.194v-20.129z"></path>
<path fill="#333" d="M29.419 7.742h-26.839c-1.423 0-2.581 1.158-2.581 2.581v19.097c0 1.423 1.158 2.581 2.581 2.581h26.839c1.423 0 2.581-1.158 2.581-2.581v-19.097c0-1.423-1.158-2.581-2.581-2.581zM30.968 29.419c0 0.854-0.695 1.548-1.548 1.548h-26.839c-0.854 0-1.548-0.695-1.548-1.548v-19.097c0-0.854 0.695-1.548 1.548-1.548h26.839c0.854 0 1.548 0.695 1.548 1.548v19.097z"></path>
<path fill="#333" d="M2.065 16.516h1.032v4.129h-1.032v-4.129z"></path>
<path fill="#333" d="M2.065 22.71h1.032v1.032h-1.032v-1.032z"></path>
<path fill="#333" d="M28.645 18.323c-0.996 0-1.806 0.81-1.806 1.806s0.81 1.806 1.806 1.806 1.806-0.81 1.806-1.806-0.81-1.806-1.806-1.806zM28.645 20.903c-0.427 0-0.774-0.347-0.774-0.774s0.347-0.774 0.774-0.774 0.774 0.347 0.774 0.774-0.347 0.774-0.774 0.774z"></path>
<path fill="#333" d="M12.903 16c0-1.139-0.926-2.065-2.065-2.065s-2.065 0.926-2.065 2.065 0.926 2.065 2.065 2.065 2.065-0.926 2.065-2.065zM10.839 17.032c-0.569 0-1.032-0.463-1.032-1.032s0.463-1.032 1.032-1.032 1.032 0.463 1.032 1.032-0.463 1.032-1.032 1.032z"></path>
<path fill="#333" d="M10.839 21.161c2.562 0 4.645-2.084 4.645-4.645s-2.084-4.645-4.645-4.645-4.645 2.084-4.645 4.645 2.084 4.645 4.645 4.645zM9.821 19.981c0.073-0.499 0.499-0.884 1.017-0.884s0.945 0.386 1.017 0.884c-0.323 0.095-0.664 0.148-1.017 0.148s-0.694-0.053-1.017-0.148zM10.839 12.903c1.992 0 3.613 1.621 3.613 3.613 0 1.266-0.656 2.38-1.644 3.025-0.255-0.851-1.036-1.477-1.969-1.477s-1.714 0.626-1.969 1.477c-0.988-0.645-1.644-1.759-1.644-3.025 0-1.992 1.621-3.613 3.613-3.613z"></path>
<path fill="#333" d="M16.516 11.871h7.742v1.032h-7.742v-1.032z"></path>
<path fill="#333" d="M16.516 13.935h7.742v1.032h-7.742v-1.032z"></path>
<path fill="#333" d="M16.516 16h7.742v1.032h-7.742v-1.032z"></path>
<path fill="#333" d="M16.516 18.065h7.742v1.032h-7.742v-1.032z"></path>
<path fill="#333" d="M16.516 20.129h7.742v1.032h-7.742v-1.032z"></path>
<path fill="#333" d="M15.484 27.871h8.774v-5.677h-8.774v5.677zM16.516 23.226h6.71v3.613h-6.71v-3.613z"></path>
<path fill="#333" d="M6.194 22.71h8.258v1.032h-8.258v-1.032z"></path>
<path fill="#333" d="M6.194 24.774h8.258v1.032h-8.258v-1.032z"></path>
<path fill="#333" d="M6.194 26.839h8.258v1.032h-8.258v-1.032z"></path>
<path fill="#333" d="M29.935 6.71c1.139 0 2.065-0.926 2.065-2.065s-0.926-2.065-2.065-2.065c-0.959 0-1.761 0.66-1.991 1.548h-0.331v1.032h0.331c0.231 0.888 1.032 1.548 1.991 1.548zM29.935 3.613c0.569 0 1.032 0.463 1.032 1.032s-0.463 1.032-1.032 1.032-1.032-0.463-1.032-1.032 0.463-1.032 1.032-1.032z"></path>
<path fill="#333" d="M2.065 4.129c0.959 0 1.761-0.66 1.991-1.548h0.331v-1.032h-0.331c-0.231-0.888-1.032-1.548-1.991-1.548-1.139 0-2.065 0.926-2.065 2.065s0.926 2.065 2.065 2.065zM2.065 1.032c0.569 0 1.032 0.463 1.032 1.032s-0.463 1.032-1.032 1.032-1.032-0.463-1.032-1.032 0.463-1.032 1.032-1.032z"></path>
<path fill="#333" d="M5.419 1.548h1.032v1.032h-1.032v-1.032z"></path>
<path fill="#333" d="M7.742 2.839h1.032v-1.29h-1.29v1.032h0.258z"></path>
<path fill="#333" d="M7.742 3.871h1.032v1.032h-1.032v-1.032z"></path>
<path fill="#333" d="M7.742 5.935h1.032v0.774h-1.032v-0.774z"></path>
<path fill="#333" d="M13.419 5.935h1.032v0.774h-1.032v-0.774z"></path>
<path fill="#333" d="M14.452 5.161h0.258v-1.032h-1.29v1.29h1.032z"></path>
<path fill="#333" d="M24.745 4.129h1.433v1.032h-1.433v-1.032z"></path>
<path fill="#333" d="M16.145 4.129h1.433v1.032h-1.433v-1.032z"></path>
<path fill="#333" d="M21.879 4.129h1.433v1.032h-1.433v-1.032z"></path>
<path fill="#333" d="M19.011 4.129h1.433v1.032h-1.433v-1.032z"></path>
</svg>
