<!-- Generated by IcoMoon.io -->
<svg version="1.1" xmlns="http://www.w3.org/2000/svg" width="32" height="32" viewBox="0 0 32 32">
<title>rating</title>
<path fill="#f9ba48" d="M8.258 6.52l-1.276 0.706 0.244-1.494-1.032-1.058 1.427-0.218 0.638-1.359 0.638 1.359 1.427 0.218-1.032 1.058 0.244 1.494z"></path>
<path fill="#f9ba48" d="M16 6.52l-1.276 0.706 0.244-1.494-1.032-1.058 1.427-0.218 0.638-1.359 0.638 1.359 1.427 0.218-1.032 1.058 0.244 1.494z"></path>
<path fill="#f9ba48" d="M23.226 6.52l-1.276 0.706 0.244-1.494-1.032-1.058 1.427-0.218 0.638-1.359 0.638 1.359 1.427 0.218-1.032 1.058 0.244 1.494z"></path>
<path fill="#f9ba48" d="M11.871 13.746l-1.276 0.706 0.244-1.494-1.032-1.058 1.427-0.218 0.638-1.359 0.638 1.359 1.427 0.218-1.032 1.058 0.244 1.494z"></path>
<path fill="#f9ba48" d="M19.613 13.746l-1.276 0.706 0.244-1.494-1.032-1.058 1.427-0.218 0.638-1.359 0.638 1.359 1.427 0.218-1.032 1.058 0.244 1.494z"></path>
<path fill="#333" d="M23.226 0h-14.452c-4.838 0-8.774 3.936-8.774 8.774s3.936 8.774 8.774 8.774h1.032v1.885c0 1.177-0.913 2.134-2.067 2.226-0.010-0.845-0.699-1.53-1.546-1.53h-4.645c-0.854 0-1.548 0.695-1.548 1.548v8.774c0 0.854 0.695 1.548 1.548 1.548h4.645c0.854 0 1.548-0.695 1.548-1.548h0.618c0.41 0 0.79 0.204 1.017 0.545 0.419 0.628 1.121 1.004 1.876 1.004h7.605c1.555 0 2.82-1.265 2.82-2.82v-5.716c0-1.555-1.265-2.82-2.82-2.82h-0.093l3.785-3.097h0.676c4.838 0 8.774-3.936 8.774-8.774s-3.936-8.774-8.774-8.774zM6.194 30.968h-4.645c-0.285 0-0.516-0.231-0.516-0.516v-8.774c0-0.285 0.231-0.516 0.516-0.516h4.645c0.285 0 0.516 0.231 0.516 0.516v8.774c0 0.285-0.231 0.516-0.516 0.516zM20.645 23.465v5.716c0 0.985-0.802 1.787-1.787 1.787h-7.605c-0.41 0-0.79-0.204-1.017-0.545-0.419-0.628-1.121-1.004-1.876-1.004h-0.618v-6.715c1.723-0.093 3.097-1.525 3.097-3.271v-1.885c0-0.712 0.579-1.29 1.29-1.29s1.29 0.579 1.29 1.29v2.474c0 0.913 0.742 1.655 1.655 1.655h3.784c0.985 0 1.787 0.802 1.787 1.787zM15.074 20.645c-0.343 0-0.622-0.279-0.622-0.622v-2.474h3.613v3.097h-2.99zM23.226 16.516h-1.045l-3.084 2.524v-2.524h-4.898c-0.381-0.761-1.161-1.29-2.070-1.29s-1.688 0.529-2.070 1.29h-1.285c-4.269 0-7.742-3.473-7.742-7.742s3.473-7.742 7.742-7.742h14.452c4.269 0 7.742 3.473 7.742 7.742s-3.473 7.742-7.742 7.742z"></path>
<path fill="#333" d="M2.065 28.903h3.613v1.032h-3.613v-1.032z"></path>
</svg>
