<!-- Generated by IcoMoon.io -->
<svg version="1.1" xmlns="http://www.w3.org/2000/svg" width="32" height="32" viewBox="0 0 32 32">
<title>teamwork</title>
<path fill="#f9ba48" d="M21.92 17.336c0 3.269-2.65 5.92-5.92 5.92s-5.92-2.65-5.92-5.92c0-3.269 2.65-5.92 5.92-5.92s5.92 2.65 5.92 5.92z"></path>
<path fill="#333" d="M12.698 9.147c0.194-0.128 0.398-0.245 0.611-0.349v1.003h5.382v-1.003c0.213 0.104 0.417 0.221 0.611 0.349 0.657 0.435 1.539 0.341 2.103-0.222 0.366-0.366 0.542-0.87 0.485-1.384-0.056-0.506-0.335-0.953-0.765-1.222-0.69-0.435-1.734-0.923-3.135-1.18 0.432-0.477 0.702-1.103 0.702-1.796 0-1.484-1.207-2.691-2.691-2.691s-2.691 1.207-2.691 2.691c0 0.693 0.27 1.319 0.701 1.796-1.401 0.257-2.445 0.745-3.135 1.18-0.429 0.27-0.708 0.716-0.765 1.222-0.057 0.514 0.119 1.018 0.485 1.384 0.563 0.563 1.447 0.656 2.103 0.222zM14.386 3.343c0-0.89 0.724-1.615 1.615-1.615s1.614 0.724 1.614 1.615-0.724 1.615-1.614 1.615-1.614-0.724-1.614-1.615zM11.181 7.661c0.011-0.105 0.062-0.302 0.269-0.432 0.865-0.545 2.357-1.195 4.551-1.195s3.686 0.65 4.551 1.195c0.207 0.13 0.257 0.326 0.269 0.432 0.021 0.187-0.043 0.37-0.176 0.503-0.202 0.202-0.517 0.238-0.748 0.086-0.48-0.318-1.008-0.574-1.57-0.764l-0.71-0.241v1.479h-3.229v-1.479l-0.71 0.24c-0.562 0.19-1.090 0.447-1.57 0.764-0.231 0.153-0.546 0.116-0.748-0.086-0.133-0.133-0.197-0.316-0.176-0.503z"></path>
<path fill="#333" d="M6.33 19.877c0.709-0.361 1.072-1.173 0.863-1.931-0.062-0.224-0.11-0.454-0.144-0.689l0.954 0.31 1.663-5.119-0.954-0.309c0.165-0.17 0.339-0.328 0.521-0.474 0.616-0.489 0.799-1.359 0.438-2.068-0.235-0.46-0.659-0.785-1.165-0.889-0.5-0.102-1.010 0.024-1.4 0.349-0.627 0.521-1.414 1.363-2.090 2.616-0.333-0.578-0.852-1.013-1.492-1.221-1.409-0.457-2.932 0.316-3.39 1.728-0.222 0.684-0.165 1.413 0.161 2.053s0.883 1.115 1.566 1.337c0.274 0.089 0.554 0.133 0.835 0.133 0.372 0 0.742-0.083 1.089-0.237-0.187 1.408-0.046 2.55 0.154 3.339 0.125 0.492 0.463 0.895 0.927 1.105 0.223 0.101 0.461 0.151 0.697 0.151 0.263 0 0.525-0.062 0.767-0.185zM2.193 14.547c-0.41-0.133-0.744-0.418-0.939-0.802s-0.23-0.821-0.097-1.232c0.221-0.681 0.856-1.116 1.536-1.116 0.165 0 0.333 0.026 0.498 0.079 0.846 0.274 1.311 1.187 1.037 2.033 0 0 0 0.001-0.001 0.001s0 0.001-0.001 0.002c-0.274 0.846-1.186 1.311-2.034 1.035zM4.982 18.54c-0.252-0.991-0.409-2.61 0.27-4.698s1.757-3.304 2.543-3.958c0.129-0.107 0.264-0.135 0.37-0.135 0.048 0 0.091 0.006 0.123 0.012 0.184 0.038 0.338 0.156 0.424 0.323 0.13 0.255 0.067 0.565-0.149 0.737-0.452 0.36-0.859 0.783-1.213 1.258l-0.447 0.601 1.407 0.457-0.998 3.071-1.407-0.457 0.009 0.75c0.007 0.594 0.088 1.176 0.242 1.73 0.074 0.267-0.058 0.554-0.313 0.685-0.167 0.085-0.362 0.089-0.532 0.012-0.097-0.043-0.268-0.152-0.328-0.389z"></path>
<path fill="#333" d="M13.859 25.901c-0.234-0.011-0.467-0.036-0.701-0.076l0.59-0.812-4.353-3.163-0.59 0.812c-0.11-0.21-0.207-0.425-0.288-0.642-0.276-0.736-1.045-1.182-1.832-1.055-0.51 0.080-0.95 0.385-1.205 0.834-0.252 0.443-0.288 0.968-0.101 1.439 0.302 0.757 0.859 1.766 1.842 2.797-0.653 0.138-1.227 0.497-1.622 1.041-0.422 0.581-0.594 1.292-0.481 2.003s0.495 1.334 1.076 1.756c0.464 0.338 1.012 0.515 1.576 0.515 0.142 0 0.284-0.011 0.427-0.034 0.71-0.112 1.334-0.495 1.757-1.076 0.407-0.56 0.556-1.225 0.488-1.865 1.285 0.616 2.416 0.834 3.23 0.888 0.037 0.002 0.074 0.004 0.11 0.004 0.466 0 0.908-0.195 1.227-0.544 0.348-0.382 0.502-0.893 0.42-1.404-0.124-0.786-0.785-1.381-1.569-1.416zM9.082 29.605c-0.254 0.349-0.628 0.578-1.054 0.646-0.422 0.067-0.852-0.035-1.201-0.288s-0.578-0.628-0.646-1.054c-0.067-0.426 0.035-0.852 0.288-1.201s0.628-0.578 1.054-0.646c0.086-0.013 0.171-0.020 0.256-0.020 0.338 0 0.667 0.106 0.946 0.309 0.72 0.523 0.88 1.534 0.357 2.254zM14.213 27.995c-0.072 0.078-0.219 0.207-0.472 0.191-1.020-0.067-2.608-0.417-4.384-1.707-1.776-1.291-2.6-2.694-2.979-3.642v-0.001c-0.090-0.227-0.016-0.415 0.037-0.507 0.093-0.164 0.252-0.274 0.437-0.303 0.033-0.005 0.065-0.008 0.097-0.008 0.247 0 0.473 0.148 0.559 0.377 0.201 0.537 0.477 1.056 0.821 1.541l0.434 0.612 0.87-1.197 2.612 1.898-0.869 1.196 0.715 0.223c0.566 0.177 1.144 0.28 1.72 0.305 0.277 0.012 0.51 0.227 0.555 0.509 0.030 0.186-0.026 0.372-0.152 0.511z"></path>
<path fill="#333" d="M24.779 26.033c0.983-1.032 1.54-2.040 1.842-2.797 0.188-0.471 0.151-0.996-0.101-1.439-0.256-0.449-0.695-0.753-1.205-0.834-0.786-0.126-1.556 0.32-1.832 1.055-0.081 0.218-0.178 0.433-0.288 0.642l-0.59-0.812-4.353 3.163 0.59 0.812c-0.234 0.040-0.467 0.066-0.7 0.076-0.785 0.034-1.446 0.63-1.57 1.416-0.081 0.51 0.073 1.022 0.42 1.404 0.319 0.349 0.761 0.544 1.227 0.544 0.037 0 0.074-0.002 0.11-0.004 0.814-0.053 1.945-0.272 3.23-0.888-0.068 0.639 0.081 1.305 0.488 1.865h0.001c0.422 0.581 1.046 0.963 1.756 1.076 0.143 0.023 0.285 0.034 0.427 0.034 0.564 0 1.111-0.177 1.576-0.515 0.581-0.422 0.963-1.046 1.076-1.756s-0.058-1.421-0.481-2.003c-0.394-0.542-0.969-0.902-1.622-1.040zM18.259 28.186c-0.257 0.015-0.401-0.114-0.472-0.191-0.126-0.139-0.182-0.325-0.153-0.51 0.045-0.283 0.279-0.497 0.555-0.509 0.575-0.026 1.154-0.128 1.719-0.305l0.715-0.223-0.869-1.196 2.612-1.898 0.87 1.197 0.434-0.612c0.344-0.485 0.62-1.004 0.821-1.541 0.097-0.259 0.371-0.412 0.656-0.37 0.185 0.030 0.345 0.14 0.437 0.303 0.053 0.092 0.127 0.28 0.037 0.508-0.379 0.949-1.203 2.351-2.979 3.642-1.775 1.29-3.364 1.64-4.383 1.707zM25.82 28.909c-0.068 0.426-0.297 0.8-0.646 1.054s-0.778 0.355-1.201 0.288c-0.426-0.068-0.8-0.297-1.054-0.646-0.523-0.721-0.363-1.732 0.358-2.255 0.348-0.253 0.774-0.354 1.201-0.288 0.426 0.068 0.8 0.297 1.054 0.646s0.356 0.775 0.288 1.201z"></path>
<path fill="#333" d="M31.866 12.181c-0.459-1.412-1.982-2.186-3.39-1.728-0.639 0.208-1.159 0.643-1.492 1.221-0.677-1.253-1.464-2.095-2.090-2.616-0.391-0.325-0.9-0.452-1.4-0.349-0.506 0.104-0.93 0.428-1.165 0.889-0.362 0.709-0.178 1.579 0.437 2.068 0.182 0.146 0.357 0.304 0.521 0.474l-0.954 0.309 1.663 5.119 0.954-0.31c-0.033 0.235-0.081 0.465-0.144 0.689-0.21 0.758 0.153 1.57 0.862 1.93 0.242 0.123 0.505 0.186 0.767 0.186 0.237 0 0.474-0.051 0.697-0.151 0.464-0.21 0.802-0.613 0.927-1.105h0.001c0.2-0.789 0.342-1.93 0.154-3.339 0.348 0.155 0.716 0.237 1.089 0.237 0.28 0 0.561-0.044 0.835-0.133 0.684-0.222 1.24-0.697 1.566-1.337 0.327-0.641 0.384-1.37 0.161-2.053zM27.018 18.54c-0.060 0.237-0.231 0.346-0.328 0.39-0.17 0.078-0.364 0.074-0.532-0.012-0.255-0.13-0.387-0.417-0.313-0.684 0.153-0.554 0.235-1.136 0.242-1.73l0.009-0.75-1.407 0.457-0.998-3.071 1.407-0.457-0.447-0.601c-0.353-0.475-0.761-0.898-1.213-1.258-0.216-0.172-0.279-0.482-0.149-0.737 0.086-0.168 0.239-0.285 0.424-0.323 0.104-0.022 0.307-0.033 0.494 0.123 0.786 0.654 1.865 1.871 2.543 3.958 0.677 2.088 0.52 3.706 0.269 4.697zM30.746 13.745c-0.195 0.384-0.529 0.669-0.939 0.802-0.847 0.276-1.76-0.191-2.035-1.037-0.276-0.847 0.19-1.76 1.037-2.034 0.165-0.054 0.333-0.079 0.498-0.079 0.681 0 1.315 0.435 1.536 1.116 0.133 0.41 0.1 0.847-0.097 1.231z"></path>
<path fill="#333" d="M17.076 21.122c1.187 0 2.153-0.965 2.153-2.153s-0.965-2.153-2.153-2.153h-2.153c-0.594 0-1.076-0.483-1.076-1.076s0.483-1.076 1.076-1.076h2.153c0.594 0 1.076 0.483 1.076 1.076v0.538h1.076v-0.538c0-1.187-0.965-2.153-2.153-2.153h-0.538v-1.076h-1.076v1.076h-0.538c-1.187 0-2.153 0.965-2.153 2.153s0.965 2.153 2.153 2.153h2.153c0.594 0 1.076 0.483 1.076 1.076s-0.483 1.076-1.076 1.076h-2.153c-0.594 0-1.076-0.483-1.076-1.076v-0.538h-1.076v0.538c0 1.187 0.965 2.153 2.153 2.153h0.538v1.076h1.076v-1.076h0.538z"></path>
</svg>
