<!-- Generated by IcoMoon.io -->
<svg version="1.1" xmlns="http://www.w3.org/2000/svg" width="32" height="32" viewBox="0 0 32 32">
<title>think</title>
<path fill="#f9ba48" d="M19.097 24.258c-1.464 0-2.869-0.57-3.923-1.58-0.961 0.689-2.116 1.064-3.303 1.064-2.029 0-3.885-1.074-4.903-2.818-4.052-0.948-6.968-4.609-6.968-8.795 0-4.98 4.052-9.032 9.032-9.032 0.489 0 0.981 0.040 1.467 0.12 1.561-2.020 3.979-3.217 6.533-3.217 2.753 0 5.284 1.35 6.826 3.625 4.515 0.198 8.142 3.956 8.142 8.504 0 4.341-3.307 7.992-7.59 8.457-0.829 2.21-2.925 3.672-5.313 3.672z"></path>
<path fill="#333" d="M27.871 20.645c-1.423 0-2.581 1.158-2.581 2.581s1.158 2.581 2.581 2.581 2.581-1.158 2.581-2.581-1.158-2.581-2.581-2.581zM27.871 24.774c-0.854 0-1.548-0.695-1.548-1.548s0.695-1.548 1.548-1.548 1.548 0.695 1.548 1.548-0.695 1.548-1.548 1.548z"></path>
<path fill="#333" d="M25.032 25.806c-0.996 0-1.806 0.81-1.806 1.806s0.81 1.806 1.806 1.806 1.806-0.81 1.806-1.806-0.81-1.806-1.806-1.806zM25.032 28.387c-0.427 0-0.774-0.347-0.774-0.774s0.347-0.774 0.774-0.774 0.774 0.347 0.774 0.774-0.347 0.774-0.774 0.774z"></path>
<path fill="#333" d="M21.677 28.903c-0.854 0-1.548 0.695-1.548 1.548s0.695 1.548 1.548 1.548 1.548-0.695 1.548-1.548-0.695-1.548-1.548-1.548zM21.677 30.968c-0.285 0-0.516-0.231-0.516-0.516s0.231-0.516 0.516-0.516 0.516 0.231 0.516 0.516-0.231 0.516-0.516 0.516z"></path>
<path fill="#333" d="M12.903 9.548c0-1.85-1.505-3.355-3.355-3.355h-2.323v12.387h2.323c1.85 0 3.355-1.505 3.355-3.355 0-1.193-0.627-2.244-1.569-2.839 0.941-0.595 1.569-1.645 1.569-2.839zM9.548 11.871h-0.774v1.032h0.774c1.281 0 2.323 1.042 2.323 2.323s-1.042 2.323-2.323 2.323h-1.29v-10.323h1.29c1.281 0 2.323 1.042 2.323 2.323s-1.042 2.323-2.323 2.323z"></path>
<path fill="#333" d="M14.452 7.226h1.032v10.323h-1.032v1.032h3.097v-1.032h-1.032v-10.323h1.032v-1.032h-3.097z"></path>
<path fill="#333" d="M24.774 15.742v-3.871h-2.581v1.032h1.548v2.839c0 0.996-0.81 1.806-1.806 1.806s-1.806-0.81-1.806-1.806v-6.71c0-0.996 0.81-1.806 1.806-1.806s1.806 0.81 1.806 1.806h1.032v-2.839h-1.032v0.651c-0.491-0.406-1.121-0.651-1.806-0.651-1.565 0-2.839 1.274-2.839 2.839v6.71c0 1.565 1.274 2.839 2.839 2.839s2.839-1.274 2.839-2.839z"></path>
</svg>
