<!-- Generated by IcoMoon.io -->
<svg version="1.1" xmlns="http://www.w3.org/2000/svg" width="32" height="32" viewBox="0 0 32 32">
<title>ticket</title>
<path fill="#f9ba48" d="M16 17.548l-14.968-5.677h8.258v-5.677h13.419v5.677h8.258l-14.968 5.677z"></path>
<path fill="#333" d="M22.71 19.097h-9.538l-1.817 2.27-1.817-2.27h-9.538v12.903h32v-12.903h-9.29zM21.677 30.968h-20.645v-10.839h8.010l2.312 2.891 2.312-2.891h8.010v10.839zM30.968 30.968h-8.258v-10.839h8.258v10.839z"></path>
<path fill="#333" d="M2.581 25.29h17.548v1.032h-17.548v-1.032z"></path>
<path fill="#333" d="M20.129 28.387c0 0.285-0.231 0.516-0.516 0.516s-0.516-0.231-0.516-0.516c0-0.285 0.231-0.516 0.516-0.516s0.516 0.231 0.516 0.516z"></path>
<path fill="#333" d="M17.548 28.387c0 0.285-0.231 0.516-0.516 0.516s-0.516-0.231-0.516-0.516c0-0.285 0.231-0.516 0.516-0.516s0.516 0.231 0.516 0.516z"></path>
<path fill="#333" d="M14.968 28.387c0 0.285-0.231 0.516-0.516 0.516s-0.516-0.231-0.516-0.516c0-0.285 0.231-0.516 0.516-0.516s0.516 0.231 0.516 0.516z"></path>
<path fill="#333" d="M22.71 2.065h-13.419v3.097h13.419v-3.097zM21.677 4.129h-11.355v-1.032h11.355v1.032z"></path>
<path fill="#333" d="M9.29 0h13.419v1.032h-13.419v-1.032z"></path>
</svg>
