<!-- Generated by IcoMoon.io -->
<svg version="1.1" xmlns="http://www.w3.org/2000/svg" width="32" height="32" viewBox="0 0 32 32">
<title>video-player</title>
<path fill="#f9ba48" d="M25.29 13.935c0 2.85-2.311 5.161-5.161 5.161s-5.161-2.311-5.161-5.161c0-2.851 2.311-5.161 5.161-5.161s5.161 2.311 5.161 5.161z"></path>
<path fill="#333" d="M9.29 2.065h4.129v1.032h-4.129v-1.032z"></path>
<path fill="#333" d="M6.194 2.065h1.032v1.032h-1.032v-1.032z"></path>
<path fill="#333" d="M9.806 26.839c-0.996 0-1.806 0.81-1.806 1.806s0.81 1.806 1.806 1.806 1.806-0.81 1.806-1.806-0.81-1.806-1.806-1.806zM9.806 29.419c-0.427 0-0.774-0.347-0.774-0.774s0.347-0.774 0.774-0.774 0.774 0.347 0.774 0.774-0.347 0.774-0.774 0.774z"></path>
<path fill="#333" d="M17.548 10.52v6.831l6.831-3.416-6.831-3.416zM18.581 12.19l3.491 1.746-3.491 1.746v-3.491z"></path>
<path fill="#333" d="M32 6.194h-12.387v-3.613c0-1.423-1.158-2.581-2.581-2.581h-14.452c-1.423 0-2.581 1.158-2.581 2.581v26.839c0 1.423 1.158 2.581 2.581 2.581h14.452c1.423 0 2.581-1.158 2.581-2.581v-5.161h12.387v-18.065zM30.968 20.129h-21.677v-12.903h21.677v12.903zM2.581 1.032h14.452c0.854 0 1.548 0.695 1.548 1.548v1.548h-17.548v-1.548c0-0.854 0.695-1.548 1.548-1.548zM17.032 30.968h-14.452c-0.854 0-1.548-0.695-1.548-1.548v-3.097h17.548v3.097c0 0.854-0.695 1.548-1.548 1.548zM18.581 25.29h-17.548v-20.129h17.548v1.032h-10.323v18.065h10.323v1.032zM9.29 23.226v-2.065h21.677v2.065h-21.677z"></path>
<path fill="#333" d="M10.323 21.677h1.548v1.032h-1.548v-1.032z"></path>
<path fill="#333" d="M14.968 21.677h14.968v1.032h-14.968v-1.032z"></path>
<path fill="#333" d="M12.903 21.677h1.032v1.032h-1.032v-1.032z"></path>
<path fill="#333" d="M11.355 8.774c0 0.285-0.231 0.516-0.516 0.516s-0.516-0.231-0.516-0.516c0-0.285 0.231-0.516 0.516-0.516s0.516 0.231 0.516 0.516z"></path>
<path fill="#333" d="M12.903 8.774c0 0.285-0.231 0.516-0.516 0.516s-0.516-0.231-0.516-0.516c0-0.285 0.231-0.516 0.516-0.516s0.516 0.231 0.516 0.516z"></path>
<path fill="#333" d="M14.452 8.774c0 0.285-0.231 0.516-0.516 0.516s-0.516-0.231-0.516-0.516c0-0.285 0.231-0.516 0.516-0.516s0.516 0.231 0.516 0.516z"></path>
</svg>
